<svg width="317" height="76" viewBox="0 0 317 76" fill="none" xmlns="http://www.w3.org/2000/svg">
<path d="M7.51042 24.0706C6.34433 24.0706 5.24778 23.8299 4.22077 23.3485C3.20446 22.8671 2.32722 22.1985 1.58905 21.3426C0.850886 20.4868 0.321333 19.4919 0.000391798 18.3579L4.20472 17.2346C4.3438 17.7802 4.58985 18.2509 4.94289 18.6467C5.30662 19.0425 5.72384 19.3528 6.19456 19.5774C6.67597 19.7914 7.16808 19.8984 7.67089 19.8984C8.33417 19.8984 8.93861 19.7379 9.48421 19.417C10.0405 19.096 10.4791 18.6628 10.8001 18.1172C11.1317 17.5716 11.2975 16.9671 11.2975 16.3038C11.2975 15.6406 11.1317 15.0361 10.8001 14.4905C10.4791 13.9449 10.0405 13.5116 9.48421 13.1907C8.93861 12.8698 8.33417 12.7093 7.67089 12.7093C6.85784 12.7093 6.19456 12.8484 5.68105 13.1265C5.16755 13.394 4.78242 13.6507 4.52566 13.8968L0.834839 12.7735L1.54091 0.481431H14.1539V4.55738H3.94797L5.48849 3.11315L5.00708 11.0404L4.26891 10.1418C4.8466 9.67105 5.50453 9.32871 6.2427 9.11475C6.98086 8.90079 7.67089 8.79381 8.31277 8.79381C9.7677 8.79381 11.0461 9.1201 12.148 9.77268C13.2606 10.4146 14.1272 11.3025 14.7476 12.4365C15.3788 13.5598 15.6944 14.8489 15.6944 16.3038C15.6944 17.7588 15.3146 19.0746 14.5551 20.2514C13.7955 21.4175 12.7953 22.3482 11.5543 23.0436C10.3133 23.7283 8.96535 24.0706 7.51042 24.0706ZM26.9552 24.0706C25.3933 24.0706 24.0025 23.755 22.783 23.1238C21.5741 22.482 20.622 21.6047 19.9266 20.4921C19.2419 19.3688 18.8996 18.0904 18.8996 16.6569C18.8996 15.4373 19.1724 14.2873 19.718 13.2068C20.2743 12.1262 21.0713 11.2437 22.109 10.559L22.0127 11.9069C21.2317 11.1474 20.6166 10.345 20.1673 9.49988C19.7287 8.65473 19.5094 7.70261 19.5094 6.6435C19.5094 5.30625 19.8249 4.14016 20.4561 3.14524C21.098 2.15032 21.9753 1.38007 23.0879 0.834465C24.2111 0.278168 25.5003 1.91296e-05 26.9552 1.91296e-05C28.4101 1.91296e-05 29.6939 0.278168 30.8065 0.834465C31.9298 1.38007 32.807 2.15032 33.4382 3.14524C34.0801 4.14016 34.401 5.30625 34.401 6.6435C34.401 7.70261 34.1924 8.65473 33.7752 9.49988C33.358 10.3343 32.7214 11.1474 31.8656 11.939V10.5911C32.8819 11.233 33.6629 12.0995 34.2085 13.1907C34.7648 14.2819 35.0429 15.4373 35.0429 16.6569C35.0429 18.0904 34.6952 19.3688 33.9999 20.4921C33.3045 21.6047 32.347 22.482 31.1274 23.1238C29.9079 23.755 28.5171 24.0706 26.9552 24.0706ZM26.9552 19.9626C27.9822 19.9626 28.8167 19.6844 29.4585 19.1281C30.1004 18.5718 30.4214 17.7481 30.4214 16.6569C30.4214 15.5764 30.1004 14.7526 29.4585 14.1856C28.8167 13.6079 27.9822 13.3191 26.9552 13.3191C25.9282 13.3191 25.0991 13.6079 24.4679 14.1856C23.8367 14.7526 23.5211 15.5764 23.5211 16.6569C23.5211 17.7481 23.8367 18.5718 24.4679 19.1281C25.0991 19.6844 25.9282 19.9626 26.9552 19.9626ZM26.9552 9.17894C27.7896 9.17894 28.469 8.97568 28.9932 8.56915C29.5174 8.15193 29.7795 7.51004 29.7795 6.6435C29.7795 5.77696 29.5174 5.13508 28.9932 4.71786C28.469 4.28993 27.7896 4.07597 26.9552 4.07597C26.1207 4.07597 25.4414 4.28993 24.9172 4.71786C24.393 5.13508 24.1309 5.77696 24.1309 6.6435C24.1309 7.51004 24.393 8.15193 24.9172 8.56915C25.4414 8.97568 26.1207 9.17894 26.9552 9.17894ZM42.4261 23.5892L39.5376 20.7007L59.7569 0.481431L62.6454 3.402L42.4261 23.5892ZM57.8312 24.0706C56.7721 24.0706 55.804 23.8139 54.9267 23.3004C54.0602 22.7762 53.3648 22.0808 52.8406 21.2142C52.3164 20.337 52.0543 19.3635 52.0543 18.2937C52.0543 17.2453 52.3218 16.2824 52.8567 15.4052C53.3916 14.528 54.0976 13.8272 54.9749 13.303C55.8521 12.7788 56.8042 12.5167 57.8312 12.5167C58.8904 12.5167 59.8585 12.7788 60.7358 13.303C61.613 13.8165 62.3084 14.5119 62.8219 15.3892C63.3461 16.2557 63.6082 17.2239 63.6082 18.2937C63.6082 19.3635 63.3461 20.337 62.8219 21.2142C62.3084 22.0808 61.613 22.7762 60.7358 23.3004C59.8585 23.8139 58.8904 24.0706 57.8312 24.0706ZM57.8312 20.3798C58.2057 20.3798 58.548 20.2835 58.8583 20.0909C59.1792 19.8984 59.436 19.647 59.6285 19.3367C59.8211 19.0158 59.9174 18.6681 59.9174 18.2937C59.9174 17.9192 59.8211 17.5769 59.6285 17.2667C59.436 16.9457 59.1792 16.689 58.8583 16.4964C58.548 16.3038 58.2057 16.2076 57.8312 16.2076C57.4568 16.2076 57.1091 16.3038 56.7882 16.4964C56.4779 16.689 56.2265 16.9457 56.034 17.2667C55.8414 17.5769 55.7451 17.9192 55.7451 18.2937C55.7451 18.6681 55.8414 19.0158 56.034 19.3367C56.2265 19.647 56.4779 19.8984 56.7882 20.0909C57.1091 20.2835 57.4568 20.3798 57.8312 20.3798ZM44.3517 11.5539C43.2926 11.5539 42.3244 11.2972 41.4472 10.7836C40.57 10.2594 39.8692 9.56407 39.345 8.69753C38.8315 7.82029 38.5748 6.84677 38.5748 5.77696C38.5748 4.72855 38.8422 3.76573 39.3771 2.88849C39.912 2.01125 40.6181 1.31053 41.4953 0.786324C42.3726 0.262121 43.3247 1.91296e-05 44.3517 1.91296e-05C45.4108 1.91296e-05 46.3736 0.262121 47.2402 0.786324C48.1174 1.29983 48.8181 1.9952 49.3424 2.87244C49.8666 3.73898 50.1287 4.70716 50.1287 5.77696C50.1287 6.84677 49.8666 7.82029 49.3424 8.69753C48.8181 9.56407 48.1174 10.2594 47.2402 10.7836C46.3736 11.2972 45.4108 11.5539 44.3517 11.5539ZM44.3517 7.86308C44.7261 7.86308 45.0685 7.7668 45.3787 7.57423C45.6997 7.38167 45.9564 7.13026 46.149 6.82002C46.3416 6.49908 46.4378 6.15139 46.4378 5.77696C46.4378 5.40253 46.3416 5.06019 46.149 4.74995C45.9564 4.42901 45.6997 4.17225 45.3787 3.97969C45.0685 3.78713 44.7261 3.69084 44.3517 3.69084C43.9773 3.69084 43.6296 3.78713 43.3087 3.97969C42.9984 4.17225 42.747 4.42901 42.5544 4.74995C42.3619 5.06019 42.2656 5.40253 42.2656 5.77696C42.2656 6.15139 42.3619 6.49908 42.5544 6.82002C42.747 7.13026 42.9984 7.38167 43.3087 7.57423C43.6296 7.7668 43.9773 7.86308 44.3517 7.86308Z" fill="url(#paint0_linear_5497_4255)"/>
<path d="M81.1022 24.0706C79.3692 24.0706 77.8661 23.6801 76.593 22.8992C75.32 22.1182 74.3357 21.0431 73.6404 19.6737C72.9557 18.2937 72.6134 16.705 72.6134 14.9077C72.6134 13.0998 72.9664 11.5111 73.6725 10.1418C74.3785 8.76171 75.3681 7.69191 76.6412 6.93235C77.9142 6.16209 79.4013 5.77696 81.1022 5.77696C82.8353 5.77696 84.3384 6.16744 85.6115 6.9484C86.8845 7.72935 87.8688 8.80451 88.5641 10.1739C89.2595 11.5432 89.6072 13.1212 89.6072 14.9077C89.6072 16.7157 89.2542 18.3097 88.5481 19.6898C87.8527 21.0591 86.8685 22.1343 85.5954 22.9152C84.3224 23.6855 82.8246 24.0706 81.1022 24.0706ZM81.1022 20.9093C82.7604 20.9093 83.9961 20.353 84.8091 19.2404C85.6329 18.1172 86.0447 16.6729 86.0447 14.9077C86.0447 13.0998 85.6275 11.6555 84.7931 10.575C83.9693 9.48383 82.739 8.93823 81.1022 8.93823C79.979 8.93823 79.0536 9.19499 78.3261 9.70849C77.5986 10.2113 77.0584 10.912 76.7054 11.8107C76.3523 12.6986 76.1758 13.731 76.1758 14.9077C76.1758 16.7264 76.593 18.1813 77.4275 19.2725C78.2619 20.3637 79.4868 20.9093 81.1022 20.9093ZM94.4012 23.5892V5.64859C94.4012 5.20997 94.4173 4.7446 94.4494 4.25249C94.4815 3.74968 94.5724 3.25757 94.7222 2.77616C94.8827 2.28405 95.1448 1.83473 95.5085 1.42821C95.9471 0.946795 96.4285 0.604457 96.9527 0.401195C97.4769 0.197932 97.9958 0.0802531 98.5093 0.0481587C99.0335 0.0160657 99.5149 1.91296e-05 99.9535 1.91296e-05H102.136V2.76011H100.114C99.3223 2.76011 98.7286 2.95803 98.3328 3.35386C97.9477 3.73898 97.7551 4.28993 97.7551 5.0067V23.5892H94.4012ZM91.5288 8.95428V6.25837H102.136V8.95428H91.5288ZM118.61 24.0706C116.952 24.0706 115.561 23.6694 114.438 22.8671C113.315 22.054 112.464 20.9575 111.887 19.5774C111.309 18.1974 111.02 16.6408 111.02 14.9077C111.02 13.1747 111.303 11.6181 111.87 10.238C112.448 8.858 113.293 7.77215 114.406 6.98049C115.529 6.17814 116.909 5.77696 118.546 5.77696C120.172 5.77696 121.574 6.17814 122.75 6.98049C123.938 7.77215 124.853 8.858 125.494 10.238C126.136 11.6074 126.457 13.164 126.457 14.9077C126.457 16.6408 126.136 18.2027 125.494 19.5935C124.863 20.9735 123.959 22.0647 122.782 22.8671C121.616 23.6694 120.226 24.0706 118.61 24.0706ZM110.458 23.5892V0.481431H113.828V11.1206H113.443V23.5892H110.458ZM118.145 21.0377C119.215 21.0377 120.097 20.7649 120.793 20.2193C121.499 19.6737 122.023 18.9409 122.365 18.0209C122.718 17.0901 122.895 16.0524 122.895 14.9077C122.895 13.7737 122.718 12.7467 122.365 11.8267C122.023 10.9067 121.493 10.1739 120.777 9.62826C120.06 9.08266 119.145 8.80986 118.033 8.80986C116.984 8.80986 116.118 9.06661 115.433 9.58012C114.759 10.0936 114.256 10.8104 113.925 11.7304C113.604 12.6505 113.443 13.7096 113.443 14.9077C113.443 16.1059 113.604 17.165 113.925 18.0851C114.245 19.0051 114.754 19.7272 115.449 20.2514C116.144 20.7756 117.043 21.0377 118.145 21.0377ZM136.211 24.0546C135.012 24.0546 134.007 23.862 133.194 23.4769C132.381 23.0917 131.717 22.5889 131.204 21.9684C130.701 21.3373 130.316 20.6526 130.049 19.9144C129.781 19.1763 129.599 18.4541 129.503 17.7481C129.407 17.042 129.359 16.4215 129.359 15.8866V6.25837H132.76V14.7794C132.76 15.4533 132.814 16.1487 132.921 16.8655C133.039 17.5716 133.253 18.2295 133.563 18.8393C133.884 19.4491 134.328 19.9412 134.895 20.3156C135.472 20.69 136.221 20.8772 137.141 20.8772C137.74 20.8772 138.307 20.781 138.842 20.5884C139.377 20.3851 139.843 20.0642 140.238 19.6256C140.645 19.187 140.961 18.6093 141.185 17.8925C141.421 17.1757 141.538 16.3038 141.538 15.2768L143.624 16.0631C143.624 17.6357 143.33 19.0265 142.742 20.2354C142.153 21.4335 141.308 22.3696 140.206 23.0436C139.104 23.7176 137.773 24.0546 136.211 24.0546ZM141.939 23.5892V18.5825H141.538V6.25837H144.924V23.5892H141.939ZM155.731 24.0546C153.624 24.0546 151.907 23.5892 150.58 22.6585C149.254 21.7277 148.441 20.4172 148.141 18.7269L151.575 18.1974C151.789 19.096 152.281 19.8074 153.052 20.3316C153.832 20.8452 154.801 21.1019 155.956 21.1019C157.004 21.1019 157.823 20.8879 158.411 20.46C159.01 20.0321 159.31 19.4437 159.31 18.6948C159.31 18.2562 159.203 17.9032 158.989 17.6357C158.786 17.3576 158.352 17.0955 157.689 16.8494C157.026 16.6034 156.015 16.2985 154.656 15.9348C153.169 15.5496 151.987 15.1377 151.11 14.6991C150.243 14.2498 149.623 13.731 149.248 13.1426C148.885 12.5435 148.703 11.8214 148.703 10.9762C148.703 9.9278 148.981 9.01312 149.537 8.23216C150.093 7.4512 150.874 6.84676 151.88 6.41884C152.896 5.99092 154.084 5.77696 155.443 5.77696C156.769 5.77696 157.951 5.98557 158.989 6.4028C160.027 6.82002 160.866 7.41376 161.508 8.18402C162.15 8.94358 162.535 9.83687 162.664 10.8639L159.23 11.4897C159.112 10.6553 158.721 9.99734 158.058 9.51593C157.395 9.03451 156.534 8.77241 155.475 8.72962C154.458 8.68683 153.635 8.858 153.003 9.24313C152.372 9.61756 152.057 10.1364 152.057 10.7997C152.057 11.1848 152.174 11.5111 152.41 11.7786C152.656 12.046 153.126 12.3028 153.822 12.5488C154.517 12.7949 155.544 13.0891 156.903 13.4314C158.358 13.8058 159.513 14.2231 160.369 14.6831C161.225 15.1324 161.835 15.6727 162.198 16.3038C162.573 16.9243 162.76 17.6785 162.76 18.5665C162.76 20.2782 162.134 21.6208 160.882 22.5943C159.641 23.5678 157.924 24.0546 155.731 24.0546ZM166.311 3.41804V0.16049H169.664V3.41804H166.311ZM166.311 23.5892V6.25837H169.664V23.5892H166.311ZM186.326 23.5892V15.0682C186.326 14.3942 186.267 13.7042 186.15 12.9981C186.043 12.2814 185.829 11.6181 185.508 11.0083C185.197 10.3985 184.753 9.90641 184.176 9.53197C183.609 9.15754 182.865 8.97033 181.945 8.97033C181.346 8.97033 180.779 9.07196 180.244 9.27522C179.709 9.46779 179.239 9.78338 178.832 10.222C178.436 10.6606 178.121 11.2383 177.885 11.9551C177.661 12.6718 177.548 13.5437 177.548 14.5708L175.462 13.7844C175.462 12.2118 175.756 10.8264 176.345 9.62826C176.933 8.41938 177.778 7.47795 178.88 6.80397C179.982 6.13 181.314 5.79301 182.876 5.79301C184.074 5.79301 185.08 5.98557 185.893 6.3707C186.706 6.75583 187.364 7.26399 187.867 7.89517C188.38 8.51566 188.771 9.19499 189.038 9.93315C189.305 10.6713 189.487 11.3934 189.584 12.0995C189.68 12.8056 189.728 13.4261 189.728 13.961V23.5892H186.326ZM174.146 23.5892V6.25837H177.147V11.2651H177.548V23.5892H174.146ZM201.054 24.0706C199.332 24.0706 197.818 23.6962 196.513 22.9473C195.218 22.1878 194.207 21.134 193.48 19.786C192.763 18.4274 192.405 16.8548 192.405 15.0682C192.405 13.1747 192.758 11.5325 193.464 10.1418C194.181 8.75102 195.175 7.67586 196.449 6.9163C197.722 6.15674 199.203 5.77696 200.894 5.77696C202.659 5.77696 204.162 6.18884 205.403 7.01259C206.644 7.82564 207.569 8.98637 208.179 10.4948C208.799 12.0032 209.045 13.7951 208.917 15.8706H205.563V14.651C205.542 12.6398 205.157 11.1527 204.408 10.1899C203.67 9.22708 202.541 8.74567 201.022 8.74567C199.342 8.74567 198.08 9.27522 197.235 10.3343C196.39 11.3934 195.967 12.9233 195.967 14.9238C195.967 16.828 196.39 18.3044 197.235 19.3528C198.08 20.3905 199.3 20.9093 200.894 20.9093C201.942 20.9093 202.846 20.674 203.606 20.2033C204.376 19.7219 204.975 19.0372 205.403 18.1492L208.692 19.1923C208.018 20.7435 206.997 21.9471 205.627 22.8029C204.258 23.648 202.734 24.0706 201.054 24.0706ZM194.876 15.8706V13.2549H207.248V15.8706H194.876ZM218.824 24.0546C216.716 24.0546 214.999 23.5892 213.673 22.6585C212.346 21.7277 211.533 20.4172 211.234 18.7269L214.668 18.1974C214.882 19.096 215.374 19.8074 216.144 20.3316C216.925 20.8452 217.893 21.1019 219.049 21.1019C220.097 21.1019 220.915 20.8879 221.504 20.46C222.103 20.0321 222.402 19.4437 222.402 18.6948C222.402 18.2562 222.295 17.9032 222.081 17.6357C221.878 17.3576 221.445 17.0955 220.782 16.8494C220.118 16.6034 219.107 16.2985 217.749 15.9348C216.262 15.5496 215.08 15.1377 214.202 14.6991C213.336 14.2498 212.715 13.731 212.341 13.1426C211.977 12.5435 211.795 11.8214 211.795 10.9762C211.795 9.9278 212.073 9.01312 212.63 8.23216C213.186 7.4512 213.967 6.84676 214.973 6.41884C215.989 5.99092 217.176 5.77696 218.535 5.77696C219.862 5.77696 221.044 5.98557 222.081 6.4028C223.119 6.82002 223.959 7.41376 224.601 8.18402C225.243 8.94358 225.628 9.83687 225.756 10.8639L222.322 11.4897C222.204 10.6553 221.814 9.99734 221.151 9.51593C220.487 9.03451 219.626 8.77241 218.567 8.72962C217.551 8.68683 216.727 8.858 216.096 9.24313C215.465 9.61756 215.149 10.1364 215.149 10.7997C215.149 11.1848 215.267 11.5111 215.502 11.7786C215.748 12.046 216.219 12.3028 216.914 12.5488C217.61 12.7949 218.637 13.0891 219.995 13.4314C221.45 13.8058 222.606 14.2231 223.461 14.6831C224.317 15.1324 224.927 15.6727 225.291 16.3038C225.665 16.9243 225.853 17.6785 225.853 18.5665C225.853 20.2782 225.227 21.6208 223.975 22.5943C222.734 23.5678 221.017 24.0546 218.824 24.0546ZM235.71 24.0546C233.602 24.0546 231.885 23.5892 230.559 22.6585C229.232 21.7277 228.419 20.4172 228.119 18.7269L231.553 18.1974C231.767 19.096 232.26 19.8074 233.03 20.3316C233.811 20.8452 234.779 21.1019 235.934 21.1019C236.983 21.1019 237.801 20.8879 238.39 20.46C238.989 20.0321 239.288 19.4437 239.288 18.6948C239.288 18.2562 239.181 17.9032 238.967 17.6357C238.764 17.3576 238.331 17.0955 237.667 16.8494C237.004 16.6034 235.993 16.2985 234.635 15.9348C233.147 15.5496 231.965 15.1377 231.088 14.6991C230.222 14.2498 229.601 13.731 229.227 13.1426C228.863 12.5435 228.681 11.8214 228.681 10.9762C228.681 9.9278 228.959 9.01312 229.516 8.23216C230.072 7.4512 230.853 6.84676 231.858 6.41884C232.875 5.99092 234.062 5.77696 235.421 5.77696C236.747 5.77696 237.93 5.98557 238.967 6.4028C240.005 6.82002 240.845 7.41376 241.487 8.18402C242.129 8.94358 242.514 9.83687 242.642 10.8639L239.208 11.4897C239.09 10.6553 238.7 9.99734 238.037 9.51593C237.373 9.03451 236.512 8.77241 235.453 8.72962C234.437 8.68683 233.613 8.858 232.982 9.24313C232.35 9.61756 232.035 10.1364 232.035 10.7997C232.035 11.1848 232.153 11.5111 232.388 11.7786C232.634 12.046 233.105 12.3028 233.8 12.5488C234.495 12.7949 235.522 13.0891 236.881 13.4314C238.336 13.8058 239.491 14.2231 240.347 14.6831C241.203 15.1324 241.813 15.6727 242.177 16.3038C242.551 16.9243 242.738 17.6785 242.738 18.5665C242.738 20.2782 242.112 21.6208 240.861 22.5943C239.62 23.5678 237.903 24.0546 235.71 24.0546ZM253.655 24.0706C251.932 24.0706 250.418 23.6962 249.113 22.9473C247.819 22.1878 246.808 21.134 246.08 19.786C245.364 18.4274 245.005 16.8548 245.005 15.0682C245.005 13.1747 245.358 11.5325 246.064 10.1418C246.781 8.75102 247.776 7.67586 249.049 6.9163C250.322 6.15674 251.804 5.77696 253.494 5.77696C255.259 5.77696 256.762 6.18884 258.003 7.01259C259.244 7.82564 260.17 8.98637 260.779 10.4948C261.4 12.0032 261.646 13.7951 261.518 15.8706H258.164V14.651C258.142 12.6398 257.757 11.1527 257.008 10.1899C256.27 9.22708 255.142 8.74567 253.622 8.74567C251.943 8.74567 250.68 9.27522 249.835 10.3343C248.99 11.3934 248.568 12.9233 248.568 14.9238C248.568 16.828 248.99 18.3044 249.835 19.3528C250.68 20.3905 251.9 20.9093 253.494 20.9093C254.542 20.9093 255.446 20.674 256.206 20.2033C256.976 19.7219 257.575 19.0372 258.003 18.1492L261.293 19.1923C260.619 20.7435 259.597 21.9471 258.228 22.8029C256.859 23.648 255.334 24.0706 253.655 24.0706ZM247.476 15.8706V13.2549H259.849V15.8706H247.476ZM271.424 24.0546C269.317 24.0546 267.6 23.5892 266.273 22.6585C264.947 21.7277 264.134 20.4172 263.834 18.7269L267.268 18.1974C267.482 19.096 267.974 19.8074 268.745 20.3316C269.526 20.8452 270.494 21.1019 271.649 21.1019C272.697 21.1019 273.516 20.8879 274.104 20.46C274.703 20.0321 275.003 19.4437 275.003 18.6948C275.003 18.2562 274.896 17.9032 274.682 17.6357C274.479 17.3576 274.045 17.0955 273.382 16.8494C272.719 16.6034 271.708 16.2985 270.349 15.9348C268.862 15.5496 267.68 15.1377 266.803 14.6991C265.936 14.2498 265.316 13.731 264.941 13.1426C264.578 12.5435 264.396 11.8214 264.396 10.9762C264.396 9.9278 264.674 9.01312 265.23 8.23216C265.787 7.4512 266.568 6.84676 267.573 6.41884C268.589 5.99092 269.777 5.77696 271.136 5.77696C272.462 5.77696 273.644 5.98557 274.682 6.4028C275.72 6.82002 276.559 7.41376 277.201 8.18402C277.843 8.94358 278.228 9.83687 278.357 10.8639L274.923 11.4897C274.805 10.6553 274.415 9.99734 273.751 9.51593C273.088 9.03451 272.227 8.77241 271.168 8.72962C270.151 8.68683 269.328 8.858 268.696 9.24313C268.065 9.61756 267.75 10.1364 267.75 10.7997C267.75 11.1848 267.867 11.5111 268.103 11.7786C268.349 12.046 268.819 12.3028 269.515 12.5488C270.21 12.7949 271.237 13.0891 272.596 13.4314C274.051 13.8058 275.206 14.2231 276.062 14.6831C276.918 15.1324 277.528 15.6727 277.891 16.3038C278.266 16.9243 278.453 17.6785 278.453 18.5665C278.453 20.2782 277.827 21.6208 276.576 22.5943C275.335 23.5678 273.618 24.0546 271.424 24.0546ZM0.642274 67.7186V50.3878H3.62703V54.5921L3.2098 54.0465C3.42377 53.4902 3.70191 52.9821 4.04425 52.5221C4.38659 52.0513 4.78242 51.6662 5.23173 51.3667C5.67035 51.0457 6.15711 50.7997 6.69202 50.6285C7.23762 50.4466 7.79392 50.3397 8.36091 50.3076C8.92791 50.2648 9.47351 50.2915 9.99771 50.3878V53.533C9.43072 53.3832 8.79953 53.3405 8.10416 53.4046C7.41948 53.4688 6.7883 53.6881 6.21061 54.0626C5.66501 54.4156 5.23173 54.8435 4.91079 55.3463C4.60055 55.8491 4.37589 56.4108 4.23682 57.0313C4.09774 57.6411 4.0282 58.2883 4.0282 58.973V67.7186H0.642274ZM20.1059 68.2C18.3835 68.2 16.8697 67.8256 15.5645 67.0767C14.2701 66.3172 13.2591 65.2634 12.5316 63.9155C11.8149 62.5568 11.4565 60.9842 11.4565 59.1976C11.4565 57.3041 11.8095 55.6619 12.5156 54.2712C13.2324 52.8804 14.2273 51.8053 15.5004 51.0457C16.7734 50.2862 18.2551 49.9064 19.9454 49.9064C21.7106 49.9064 23.2136 50.3183 24.4546 51.142C25.6956 51.9551 26.621 53.1158 27.2308 54.6242C27.8512 56.1326 28.0973 57.9246 27.9689 60H24.6151V58.7804C24.5937 56.7692 24.2086 55.2821 23.4597 54.3193C22.7215 53.3565 21.5929 52.8751 20.0738 52.8751C18.3942 52.8751 17.1318 53.4046 16.2867 54.4637C15.4415 55.5229 15.0189 57.0527 15.0189 59.0532C15.0189 60.9575 15.4415 62.4338 16.2867 63.4822C17.1318 64.5199 18.3514 65.0388 19.9454 65.0388C20.9938 65.0388 21.8978 64.8034 22.6573 64.3327C23.4276 63.8513 24.0267 63.1666 24.4546 62.2787L27.7443 63.3217C27.0703 64.8729 26.0486 66.0765 24.6793 66.9323C23.3099 67.7775 21.7854 68.2 20.1059 68.2ZM13.9277 60V57.3843H26.3V60H13.9277ZM38.3892 75.9026C37.4585 75.9026 36.5545 75.7582 35.6773 75.4694C34.8107 75.1805 34.0191 74.7526 33.3023 74.1856C32.5855 73.6293 31.9918 72.9393 31.5211 72.1155L34.6182 70.5429C34.9926 71.2811 35.5275 71.8213 36.2229 72.1637C36.9182 72.506 37.6511 72.6772 38.4213 72.6772C39.3734 72.6772 40.1865 72.506 40.8605 72.1637C41.5345 71.832 42.0426 71.3292 42.3849 70.6552C42.738 69.9813 42.9092 69.1468 42.8985 68.1519V63.3057H43.2996V50.3878H46.2683V68.184C46.2683 68.644 46.2523 69.0826 46.2202 69.4998C46.1881 69.9171 46.1293 70.3343 46.0437 70.7515C45.7976 71.9176 45.3269 72.8804 44.6315 73.64C43.9469 74.3995 43.0696 74.9665 41.9998 75.341C40.9407 75.7154 39.7372 75.9026 38.3892 75.9026ZM38.1325 68.2C36.5171 68.2 35.121 67.7989 33.9442 66.9965C32.7781 66.1942 31.8741 65.103 31.2322 63.7229C30.6011 62.3322 30.2855 60.7702 30.2855 59.0372C30.2855 57.2934 30.6064 55.7368 31.2483 54.3675C31.8902 52.9874 32.7995 51.9016 33.9763 51.1099C35.1638 50.3076 36.5706 49.9064 38.1967 49.9064C39.8335 49.9064 41.2082 50.3076 42.3208 51.1099C43.4441 51.9016 44.2892 52.9874 44.8562 54.3675C45.4339 55.7475 45.7227 57.3041 45.7227 59.0372C45.7227 60.7702 45.4339 62.3268 44.8562 63.7069C44.2785 65.0869 43.428 66.1835 42.3047 66.9965C41.1814 67.7989 39.7907 68.2 38.1325 68.2ZM38.5978 65.1671C39.6997 65.1671 40.5984 64.905 41.2937 64.3808C41.9891 63.8566 42.4973 63.1345 42.8182 62.2145C43.1392 61.2944 43.2996 60.2353 43.2996 59.0372C43.2996 57.839 43.1338 56.7799 42.8022 55.8598C42.4812 54.9398 41.9784 54.223 41.2937 53.7095C40.6198 53.196 39.7586 52.9393 38.7102 52.9393C37.5976 52.9393 36.6829 53.2121 35.9661 53.7577C35.2494 54.3033 34.7145 55.0361 34.3614 55.9561C34.0191 56.8762 33.8479 57.9032 33.8479 59.0372C33.8479 60.1819 34.0191 61.2196 34.3614 62.1503C34.7145 63.0703 35.2387 63.8031 35.934 64.3487C36.6401 64.8943 37.528 65.1671 38.5978 65.1671ZM50.4534 67.7186V50.3878H53.4381V54.5921L53.0209 54.0465C53.2349 53.4902 53.513 52.9821 53.8553 52.5221C54.1977 52.0513 54.5935 51.6662 55.0428 51.3667C55.4814 51.0457 55.9682 50.7997 56.5031 50.6285C57.0487 50.4466 57.605 50.3397 58.172 50.3076C58.739 50.2648 59.2846 50.2915 59.8088 50.3878V53.533C59.2418 53.3832 58.6106 53.3405 57.9152 53.4046C57.2306 53.4688 56.5994 53.6881 56.0217 54.0626C55.4761 54.4156 55.0428 54.8435 54.7219 55.3463C54.4116 55.8491 54.187 56.4108 54.0479 57.0313C53.9088 57.6411 53.8393 58.2883 53.8393 58.973V67.7186H50.4534ZM69.9169 68.2C68.1946 68.2 66.6808 67.8256 65.3756 67.0767C64.0812 66.3172 63.0702 65.2634 62.3427 63.9155C61.626 62.5568 61.2676 60.9842 61.2676 59.1976C61.2676 57.3041 61.6206 55.6619 62.3267 54.2712C63.0435 52.8804 64.0384 51.8053 65.3114 51.0457C66.5845 50.2862 68.0662 49.9064 69.7565 49.9064C71.5216 49.9064 73.0247 50.3183 74.2657 51.142C75.5067 51.9551 76.4321 53.1158 77.0418 54.6242C77.6623 56.1326 77.9084 57.9246 77.78 60H74.4262V58.7804C74.4048 56.7692 74.0196 55.2821 73.2708 54.3193C72.5326 53.3565 71.404 52.8751 69.8848 52.8751C68.2053 52.8751 66.9429 53.4046 66.0977 54.4637C65.2526 55.5229 64.83 57.0527 64.83 59.0532C64.83 60.9575 65.2526 62.4338 66.0977 63.4822C66.9429 64.5199 68.1625 65.0388 69.7565 65.0388C70.8049 65.0388 71.7089 64.8034 72.4684 64.3327C73.2387 63.8513 73.8378 63.1666 74.2657 62.2787L77.5553 63.3217C76.8814 64.8729 75.8597 66.0765 74.4904 66.9323C73.121 67.7775 71.5965 68.2 69.9169 68.2ZM63.7388 60V57.3843H76.1111V60H63.7388ZM90.9765 67.7186C89.8853 67.9326 88.8155 68.0235 87.767 67.9914C86.7186 67.9593 85.7826 67.7561 84.9588 67.3816C84.1351 67.0072 83.5146 66.4188 83.0973 65.6165C82.7229 64.8997 82.5197 64.1722 82.4876 63.4341C82.4662 62.6852 82.4555 61.84 82.4555 60.8986V45.5737H85.8253V60.7381C85.8253 61.4335 85.8307 62.038 85.8414 62.5515C85.8628 63.065 85.9751 63.4982 86.1784 63.8513C86.5635 64.5146 87.1733 64.8943 88.0077 64.9906C88.8529 65.0762 89.8425 65.0388 90.9765 64.8783V67.7186ZM79.1337 53.0837V50.3878H90.9765V53.0837H79.1337ZM107.041 68.184C104.934 68.184 103.217 67.7186 101.89 66.7879C100.563 65.8572 99.7504 64.5467 99.4508 62.8564L102.885 62.3268C103.099 63.2254 103.591 63.9369 104.361 64.4611C105.142 64.9746 106.11 65.2313 107.266 65.2313C108.314 65.2313 109.133 65.0174 109.721 64.5894C110.32 64.1615 110.62 63.5731 110.62 62.8243C110.62 62.3856 110.513 62.0326 110.299 61.7652C110.095 61.487 109.662 61.2249 108.999 60.9789C108.336 60.7328 107.325 60.4279 105.966 60.0642C104.479 59.679 103.297 59.2672 102.42 58.8285C101.553 58.3792 100.932 57.8604 100.558 57.272C100.194 56.6729 100.012 55.9508 100.012 55.1056C100.012 54.0572 100.291 53.1425 100.847 52.3616C101.403 51.5806 102.184 50.9762 103.19 50.5483C104.206 50.1203 105.394 49.9064 106.752 49.9064C108.079 49.9064 109.261 50.115 110.299 50.5322C111.336 50.9494 112.176 51.5432 112.818 52.3134C113.46 53.073 113.845 53.9663 113.973 54.9933L110.539 55.6191C110.422 54.7847 110.031 54.1268 109.368 53.6453C108.705 53.1639 107.843 52.9018 106.784 52.859C105.768 52.8162 104.944 52.9874 104.313 53.3725C103.682 53.747 103.366 54.2658 103.366 54.9291C103.366 55.3142 103.484 55.6405 103.719 55.908C103.965 56.1754 104.436 56.4322 105.131 56.6782C105.827 56.9243 106.854 57.2185 108.213 57.5608C109.667 57.9353 110.823 58.3525 111.679 58.8125C112.535 59.2618 113.144 59.8021 113.508 60.4333C113.882 61.0537 114.07 61.808 114.07 62.6959C114.07 64.4076 113.444 65.7502 112.192 66.7237C110.951 67.6972 109.234 68.184 107.041 68.184ZM124.825 68.2C123.092 68.2 121.589 67.8096 120.316 67.0286C119.043 66.2476 118.059 65.1725 117.364 63.8031C116.679 62.4231 116.337 60.8344 116.337 59.0372C116.337 57.2292 116.69 55.6405 117.396 54.2712C118.102 52.8911 119.091 51.8213 120.364 51.0618C121.637 50.2915 123.124 49.9064 124.825 49.9064C126.559 49.9064 128.062 50.2969 129.335 51.0778C130.608 51.8588 131.592 52.9339 132.287 54.3033C132.983 55.6726 133.33 57.2506 133.33 59.0372C133.33 60.8451 132.977 62.4391 132.271 63.8192C131.576 65.1885 130.592 66.2637 129.319 67.0446C128.046 67.8149 126.548 68.2 124.825 68.2ZM124.825 65.0388C126.484 65.0388 127.719 64.4825 128.532 63.3699C129.356 62.2466 129.768 60.8023 129.768 59.0372C129.768 57.2292 129.351 55.785 128.516 54.7045C127.693 53.6133 126.462 53.0677 124.825 53.0677C123.702 53.0677 122.777 53.3244 122.049 53.8379C121.322 54.3407 120.782 55.0414 120.429 55.9401C120.076 56.828 119.899 57.8604 119.899 59.0372C119.899 60.8558 120.316 62.3108 121.151 63.402C121.985 64.4932 123.21 65.0388 124.825 65.0388ZM138.124 67.7186V49.778C138.124 49.3394 138.141 48.874 138.173 48.3819C138.205 47.8791 138.296 47.387 138.445 46.9056C138.606 46.4135 138.868 45.9642 139.232 45.5576C139.67 45.0762 140.152 44.7339 140.676 44.5306C141.2 44.3274 141.719 44.2097 142.233 44.1776C142.757 44.1455 143.238 44.1294 143.677 44.1294H145.859V46.8895H143.837C143.046 46.8895 142.452 47.0874 142.056 47.4833C141.671 47.8684 141.478 48.4194 141.478 49.1361V67.7186H138.124ZM135.252 53.0837V50.3878H145.859V53.0837H135.252ZM158.011 67.7186C156.919 67.9326 155.85 68.0235 154.801 67.9914C153.753 67.9593 152.817 67.7561 151.993 67.3816C151.169 67.0072 150.549 66.4188 150.131 65.6165C149.757 64.8997 149.554 64.1722 149.522 63.4341C149.5 62.6852 149.49 61.84 149.49 60.8986V45.5737H152.859V60.7381C152.859 61.4335 152.865 62.038 152.875 62.5515C152.897 63.065 153.009 63.4982 153.212 63.8513C153.598 64.5146 154.207 64.8943 155.042 64.9906C155.887 65.0762 156.877 65.0388 158.011 64.8783V67.7186ZM146.168 53.0837V50.3878H158.011V53.0837H146.168ZM165.034 67.7186L159.739 50.3717L163.061 50.3878L166.687 62.2787L170.346 50.3878H173.234L176.893 62.2787L180.52 50.3878H183.826L178.53 67.7186H175.834L171.79 55.1698L167.73 67.7186H165.034ZM190.301 68.2C189.017 68.2 187.942 67.9647 187.076 67.494C186.209 67.0126 185.551 66.3814 185.102 65.6004C184.663 64.8088 184.444 63.9422 184.444 63.0008C184.444 62.1235 184.599 61.3533 184.909 60.69C185.219 60.0267 185.679 59.4651 186.289 59.0051C186.899 58.5344 187.648 58.1546 188.536 57.8657C189.306 57.6411 190.178 57.4432 191.151 57.272C192.125 57.1008 193.147 56.9403 194.216 56.7906C195.297 56.6408 196.367 56.491 197.426 56.3413L196.206 57.0152C196.228 55.6566 195.939 54.651 195.34 53.9984C194.751 53.3351 193.735 53.0035 192.291 53.0035C191.382 53.0035 190.547 53.2174 189.787 53.6453C189.028 54.0626 188.498 54.7579 188.199 55.7315L185.07 54.7686C185.498 53.2816 186.311 52.0995 187.509 51.2222C188.718 50.345 190.322 49.9064 192.323 49.9064C193.874 49.9064 195.222 50.1738 196.367 50.7087C197.522 51.2329 198.367 52.0674 198.902 53.2121C199.18 53.7791 199.352 54.3782 199.416 55.0093C199.48 55.6405 199.512 56.3199 199.512 57.0473V67.7186H196.543V63.755L197.121 64.2685C196.404 65.5951 195.49 66.5846 194.377 67.2372C193.275 67.8791 191.916 68.2 190.301 68.2ZM190.895 65.456C191.847 65.456 192.665 65.2902 193.35 64.9585C194.035 64.6162 194.586 64.1829 195.003 63.6587C195.42 63.1345 195.693 62.5889 195.821 62.0219C196.003 61.5084 196.105 60.9307 196.126 60.2888C196.158 59.647 196.174 59.1334 196.174 58.7483L197.265 59.1495C196.206 59.31 195.243 59.4544 194.377 59.5828C193.51 59.7111 192.724 59.8395 192.018 59.9679C191.323 60.0856 190.702 60.23 190.157 60.4012C189.697 60.5616 189.285 60.7542 188.921 60.9789C188.568 61.2035 188.284 61.4763 188.07 61.7973C187.867 62.1182 187.766 62.5087 187.766 62.9687C187.766 63.418 187.878 63.8352 188.103 64.2204C188.327 64.5948 188.67 64.8943 189.13 65.119C189.59 65.3437 190.178 65.456 190.895 65.456ZM203.358 67.7186V50.3878H206.343V54.5921L205.926 54.0465C206.14 53.4902 206.418 52.9821 206.76 52.5221C207.102 52.0513 207.498 51.6662 207.947 51.3667C208.386 51.0457 208.873 50.7997 209.408 50.6285C209.953 50.4466 210.51 50.3397 211.077 50.3076C211.644 50.2648 212.189 50.2915 212.713 50.3878V53.533C212.146 53.3832 211.515 53.3405 210.82 53.4046C210.135 53.4688 209.504 53.6881 208.926 54.0626C208.381 54.4156 207.947 54.8435 207.627 55.3463C207.316 55.8491 207.092 56.4108 206.953 57.0313C206.814 57.6411 206.744 58.2883 206.744 58.973V67.7186H203.358ZM222.822 68.2C221.099 68.2 219.585 67.8256 218.28 67.0767C216.986 66.3172 215.975 65.2634 215.247 63.9155C214.531 62.5568 214.172 60.9842 214.172 59.1976C214.172 57.3041 214.525 55.6619 215.231 54.2712C215.948 52.8804 216.943 51.8053 218.216 51.0457C219.489 50.2862 220.971 49.9064 222.661 49.9064C224.426 49.9064 225.929 50.3183 227.17 51.142C228.411 51.9551 229.337 53.1158 229.947 54.6242C230.567 56.1326 230.813 57.9246 230.685 60H227.331V58.7804C227.309 56.7692 226.924 55.2821 226.175 54.3193C225.437 53.3565 224.309 52.8751 222.79 52.8751C221.11 52.8751 219.848 53.4046 219.002 54.4637C218.157 55.5229 217.735 57.0527 217.735 59.0532C217.735 60.9575 218.157 62.4338 219.002 63.4822C219.848 64.5199 221.067 65.0388 222.661 65.0388C223.71 65.0388 224.614 64.8034 225.373 64.3327C226.143 63.8513 226.742 63.1666 227.17 62.2787L230.46 63.3217C229.786 64.8729 228.764 66.0765 227.395 66.9323C226.026 67.7775 224.501 68.2 222.822 68.2ZM216.644 60V57.3843H229.016V60H216.644ZM248.204 68.2C246.546 68.2 245.155 67.7989 244.032 66.9965C242.909 66.1835 242.058 65.0869 241.48 63.7069C240.903 62.3268 240.614 60.7702 240.614 59.0372C240.614 57.3041 240.897 55.7475 241.464 54.3675C242.042 52.9874 242.887 51.9016 244 51.1099C245.123 50.3076 246.503 49.9064 248.14 49.9064C249.766 49.9064 251.167 50.3076 252.344 51.1099C253.532 51.9016 254.446 52.9874 255.088 54.3675C255.73 55.7368 256.051 57.2934 256.051 59.0372C256.051 60.7702 255.73 62.3322 255.088 63.7229C254.457 65.103 253.553 66.1942 252.376 66.9965C251.21 67.7989 249.819 68.2 248.204 68.2ZM240.052 67.7186V44.6109H243.422V55.2501H243.037V67.7186H240.052ZM247.739 65.1671C248.809 65.1671 249.691 64.8943 250.386 64.3487C251.093 63.8031 251.617 63.0703 251.959 62.1503C252.312 61.2196 252.489 60.1819 252.489 59.0372C252.489 57.9032 252.312 56.8762 251.959 55.9561C251.617 55.0361 251.087 54.3033 250.37 53.7577C249.654 53.2121 248.739 52.9393 247.626 52.9393C246.578 52.9393 245.711 53.196 245.027 53.7095C244.353 54.223 243.85 54.9398 243.518 55.8598C243.197 56.7799 243.037 57.839 243.037 59.0372C243.037 60.2353 243.197 61.2944 243.518 62.2145C243.839 63.1345 244.347 63.8566 245.043 64.3808C245.738 64.905 246.637 65.1671 247.739 65.1671ZM265.804 68.184C264.606 68.184 263.601 67.9914 262.788 67.6063C261.975 67.2212 261.311 66.7184 260.798 66.0979C260.295 65.4667 259.91 64.782 259.642 64.0438C259.375 63.3057 259.193 62.5836 259.097 61.8775C259 61.1714 258.952 60.5509 258.952 60.016V50.3878H262.354V58.9088C262.354 59.5828 262.408 60.2781 262.515 60.9949C262.632 61.701 262.846 62.3589 263.157 62.9687C263.478 63.5785 263.922 64.0706 264.489 64.445C265.066 64.8195 265.815 65.0067 266.735 65.0067C267.334 65.0067 267.901 64.9104 268.436 64.7178C268.971 64.5146 269.436 64.1936 269.832 63.755C270.239 63.3164 270.554 62.7387 270.779 62.0219C271.014 61.3051 271.132 60.4333 271.132 59.4062L273.218 60.1926C273.218 61.7652 272.924 63.1559 272.336 64.3648C271.747 65.563 270.902 66.499 269.8 67.173C268.698 67.847 267.366 68.184 265.804 68.184ZM271.533 67.7186V62.7119H271.132V50.3878H274.518V67.7186H271.533ZM281.041 75.4212L284.394 66.2904L284.443 68.9863L276.884 50.3878H280.383L286.031 64.7499H285.004L290.396 50.3878H293.798L284.234 75.4212H281.041ZM302.618 68.184C300.511 68.184 298.794 67.7186 297.467 66.7879C296.141 65.8572 295.328 64.5467 295.028 62.8564L298.462 62.3268C298.676 63.2254 299.168 63.9369 299.939 64.4611C300.72 64.9746 301.688 65.2313 302.843 65.2313C303.891 65.2313 304.71 65.0174 305.298 64.5894C305.897 64.1615 306.197 63.5731 306.197 62.8243C306.197 62.3856 306.09 62.0326 305.876 61.7652C305.673 61.487 305.239 61.2249 304.576 60.9789C303.913 60.7328 302.902 60.4279 301.543 60.0642C300.056 59.679 298.874 59.2672 297.997 58.8285C297.13 58.3792 296.51 57.8604 296.135 57.272C295.772 56.6729 295.59 55.9508 295.59 55.1056C295.59 54.0572 295.868 53.1425 296.424 52.3616C296.981 51.5806 297.762 50.9762 298.767 50.5483C299.783 50.1203 300.971 49.9064 302.33 49.9064C303.656 49.9064 304.838 50.115 305.876 50.5322C306.914 50.9494 307.753 51.5432 308.395 52.3134C309.037 53.073 309.422 53.9663 309.551 54.9933L306.117 55.6191C305.999 54.7847 305.609 54.1268 304.945 53.6453C304.282 53.1639 303.421 52.9018 302.362 52.859C301.345 52.8162 300.522 52.9874 299.89 53.3725C299.259 53.747 298.944 54.2658 298.944 54.9291C298.944 55.3142 299.061 55.6405 299.297 55.908C299.543 56.1754 300.013 56.4322 300.709 56.6782C301.404 56.9243 302.431 57.2185 303.79 57.5608C305.245 57.9353 306.4 58.3525 307.256 58.8125C308.112 59.2618 308.722 59.8021 309.085 60.4333C309.46 61.0537 309.647 61.808 309.647 62.6959C309.647 64.4076 309.021 65.7502 307.77 66.7237C306.529 67.6972 304.812 68.184 302.618 68.184ZM313.454 67.7186V64.1722H317.001V67.7186H313.454Z" fill="white"/>
<defs>
<linearGradient id="paint0_linear_5497_4255" x1="164.884" y1="-10.5108" x2="164.884" y2="77.748" gradientUnits="userSpaceOnUse">
<stop offset="0.274038" stop-color="#FFD382"/>
<stop offset="0.774038" stop-color="#FFA527"/>
</linearGradient>
</defs>
</svg>
