<svg width="16" height="16" viewBox="0 0 16 16" fill="none" xmlns="http://www.w3.org/2000/svg">
<path d="M8.00065 1.33325C4.32465 1.33325 1.33398 4.32392 1.33398 7.99992C1.33398 11.6759 4.32465 14.6666 8.00065 14.6666C11.6767 14.6666 14.6673 11.6759 14.6673 7.99992C14.6673 7.24925 14.5366 6.52939 14.3066 5.85539L13.2272 6.93481C13.2972 7.27881 13.334 7.63525 13.334 7.99992C13.334 10.9406 10.9413 13.3333 8.00065 13.3333C5.05998 13.3333 2.66732 10.9406 2.66732 7.99992C2.66732 5.05925 5.05998 2.66659 8.00065 2.66659C9.08932 2.66659 10.1019 2.99585 10.9473 3.55851L11.9017 2.60409C10.803 1.80809 9.45732 1.33325 8.00065 1.33325ZM14.196 2.19523L7.33398 9.05721L5.13867 6.8619L4.19596 7.80461L7.33398 10.9426L15.1387 3.13794L14.196 2.19523Z" fill="#1DFFBF"/>
</svg>
