<svg width="963" height="146" viewBox="0 0 963 146" fill="none" xmlns="http://www.w3.org/2000/svg">
<path d="M2.19941e-05 52.92V1.08H30.24V7.488H6.40802V23.796H25.92V30.204H6.40802V52.92H2.19941e-05ZM36.7031 7.164V0.539997H43.1112V7.164H36.7031ZM36.7031 52.92V14.04H43.1112V52.92H36.7031ZM80.8768 52.92V33.444C80.8768 31.596 80.7088 29.82 80.3728 28.116C80.0608 26.412 79.4968 24.888 78.6808 23.544C77.8888 22.176 76.8088 21.096 75.4408 20.304C74.0968 19.512 72.3928 19.116 70.3288 19.116C68.7208 19.116 67.2568 19.392 65.9368 19.944C64.6408 20.472 63.5248 21.288 62.5888 22.392C61.6528 23.496 60.9208 24.888 60.3928 26.568C59.8888 28.224 59.6368 30.18 59.6368 32.436L55.4248 31.14C55.4248 27.372 56.0968 24.144 57.4408 21.456C58.8088 18.744 60.7168 16.668 63.1648 15.228C65.6368 13.764 68.5408 13.032 71.8768 13.032C74.3968 13.032 76.5448 13.428 78.3208 14.22C80.0968 15.012 81.5728 16.068 82.7488 17.388C83.9248 18.684 84.8488 20.148 85.5208 21.78C86.1928 23.388 86.6608 25.032 86.9248 26.712C87.2128 28.368 87.3568 29.94 87.3568 31.428V52.92H80.8768ZM53.1568 52.92V14.04H58.9168V24.444H59.6368V52.92H53.1568ZM110.909 54C107.285 54 104.177 53.1 101.585 51.3C98.9927 49.476 96.9887 47.016 95.5727 43.92C94.1807 40.824 93.4847 37.332 93.4847 33.444C93.4847 29.556 94.1807 26.064 95.5727 22.968C96.9887 19.872 98.9927 17.436 101.585 15.66C104.177 13.86 107.273 12.96 110.873 12.96C114.545 12.96 117.629 13.848 120.125 15.624C122.621 17.4 124.505 19.836 125.777 22.932C127.073 26.028 127.721 29.532 127.721 33.444C127.721 37.308 127.073 40.8 125.777 43.92C124.505 47.016 122.621 49.476 120.125 51.3C117.629 53.1 114.557 54 110.909 54ZM111.701 48.132C114.317 48.132 116.465 47.508 118.145 46.26C119.825 44.988 121.061 43.248 121.853 41.04C122.669 38.808 123.077 36.276 123.077 33.444C123.077 30.564 122.669 28.032 121.853 25.848C121.061 23.64 119.837 21.924 118.181 20.7C116.525 19.452 114.425 18.828 111.881 18.828C109.241 18.828 107.057 19.476 105.329 20.772C103.625 22.068 102.353 23.82 101.513 26.028C100.697 28.236 100.289 30.708 100.289 33.444C100.289 36.204 100.709 38.7 101.549 40.932C102.389 43.14 103.649 44.892 105.329 46.188C107.033 47.484 109.157 48.132 111.701 48.132ZM123.077 52.92V24.3H122.357V1.08H128.801V52.92H123.077ZM173.569 52.92C171.265 53.376 168.985 53.556 166.729 53.46C164.497 53.388 162.505 52.944 160.753 52.128C159.001 51.288 157.669 49.992 156.757 48.24C155.989 46.704 155.569 45.156 155.497 43.596C155.449 42.012 155.425 40.224 155.425 38.232V3.23999H161.833V37.944C161.833 39.528 161.845 40.884 161.869 42.012C161.917 43.14 162.169 44.112 162.625 44.928C163.489 46.464 164.857 47.364 166.729 47.628C168.625 47.892 170.905 47.82 173.569 47.412V52.92ZM147.541 19.332V14.04H173.569V19.332H147.541ZM208.427 52.92V33.444C208.427 31.596 208.259 29.82 207.923 28.116C207.611 26.412 207.047 24.888 206.231 23.544C205.439 22.176 204.359 21.096 202.991 20.304C201.647 19.512 199.943 19.116 197.879 19.116C196.271 19.116 194.807 19.392 193.487 19.944C192.191 20.472 191.075 21.288 190.139 22.392C189.203 23.496 188.471 24.888 187.943 26.568C187.439 28.224 187.187 30.18 187.187 32.436L182.975 31.14C182.975 27.372 183.647 24.144 184.991 21.456C186.359 18.744 188.267 16.668 190.715 15.228C193.187 13.764 196.091 13.032 199.427 13.032C201.947 13.032 204.095 13.428 205.871 14.22C207.647 15.012 209.123 16.068 210.299 17.388C211.475 18.684 212.399 20.148 213.071 21.78C213.743 23.388 214.211 25.032 214.475 26.712C214.763 28.368 214.907 29.94 214.907 31.428V52.92H208.427ZM180.707 52.92V1.08H186.467V29.7H187.187V52.92H180.707ZM240.394 54C236.578 54 233.242 53.16 230.386 51.48C227.554 49.776 225.346 47.412 223.762 44.388C222.178 41.34 221.386 37.788 221.386 33.732C221.386 29.484 222.166 25.812 223.726 22.716C225.286 19.596 227.458 17.196 230.242 15.516C233.05 13.812 236.338 12.96 240.106 12.96C244.018 12.96 247.342 13.86 250.078 15.66C252.838 17.46 254.902 20.028 256.27 23.364C257.662 26.7 258.262 30.672 258.07 35.28H251.59V32.976C251.518 28.2 250.546 24.636 248.674 22.284C246.802 19.908 244.018 18.72 240.322 18.72C236.362 18.72 233.35 19.992 231.286 22.536C229.222 25.08 228.19 28.728 228.19 33.48C228.19 38.064 229.222 41.616 231.286 44.136C233.35 46.656 236.29 47.916 240.106 47.916C242.674 47.916 244.906 47.328 246.802 46.152C248.698 44.976 250.186 43.284 251.266 41.076L257.422 43.2C255.91 46.632 253.63 49.296 250.582 51.192C247.558 53.064 244.162 54 240.394 54ZM226.03 35.28V30.132H254.758V35.28H226.03ZM279.059 52.92V1.08H299.255C302.351 1.08 304.991 1.716 307.175 2.988C309.383 4.25999 311.063 5.93999 312.215 8.028C313.391 10.092 313.979 12.324 313.979 14.724C313.979 17.532 313.259 19.992 311.819 22.104C310.379 24.216 308.435 25.668 305.987 26.46L305.915 24.696C309.251 25.584 311.843 27.216 313.691 29.592C315.539 31.968 316.463 34.8 316.463 38.088C316.463 41.112 315.839 43.728 314.591 45.936C313.367 48.144 311.591 49.86 309.263 51.084C306.959 52.308 304.223 52.92 301.055 52.92H279.059ZM285.539 46.8H299.831C301.751 46.8 303.467 46.452 304.979 45.756C306.491 45.036 307.679 44.028 308.543 42.732C309.431 41.436 309.875 39.876 309.875 38.052C309.875 36.3 309.479 34.728 308.687 33.336C307.919 31.944 306.827 30.84 305.411 30.024C304.019 29.184 302.399 28.764 300.551 28.764H285.539V46.8ZM285.539 22.716H299.183C300.719 22.716 302.099 22.392 303.323 21.744C304.571 21.072 305.555 20.136 306.275 18.936C307.019 17.736 307.391 16.332 307.391 14.724C307.391 12.492 306.635 10.668 305.123 9.252C303.611 7.836 301.631 7.128 299.183 7.128H285.539V22.716ZM339.765 54C335.949 54 332.613 53.16 329.757 51.48C326.925 49.776 324.717 47.412 323.133 44.388C321.549 41.34 320.757 37.788 320.757 33.732C320.757 29.484 321.537 25.812 323.097 22.716C324.657 19.596 326.829 17.196 329.613 15.516C332.421 13.812 335.709 12.96 339.477 12.96C343.389 12.96 346.713 13.86 349.449 15.66C352.209 17.46 354.273 20.028 355.641 23.364C357.033 26.7 357.633 30.672 357.441 35.28H350.961V32.976C350.889 28.2 349.917 24.636 348.045 22.284C346.173 19.908 343.389 18.72 339.693 18.72C335.733 18.72 332.721 19.992 330.657 22.536C328.593 25.08 327.561 28.728 327.561 33.48C327.561 38.064 328.593 41.616 330.657 44.136C332.721 46.656 335.661 47.916 339.477 47.916C342.045 47.916 344.277 47.328 346.173 46.152C348.069 44.976 349.557 43.284 350.637 41.076L356.793 43.2C355.281 46.632 353.001 49.296 349.953 51.192C346.929 53.064 343.533 54 339.765 54ZM325.401 35.28V30.132H354.129V35.28H325.401ZM379.424 53.964C374.792 53.964 370.988 52.956 368.012 50.94C365.06 48.9 363.248 46.056 362.576 42.408L369.128 41.364C369.656 43.476 370.868 45.156 372.764 46.404C374.66 47.628 377.012 48.24 379.82 48.24C382.484 48.24 384.572 47.688 386.084 46.584C387.596 45.48 388.352 43.98 388.352 42.084C388.352 40.98 388.1 40.092 387.596 39.42C387.092 38.724 386.048 38.076 384.464 37.476C382.904 36.876 380.54 36.156 377.372 35.316C373.94 34.404 371.24 33.456 369.272 32.472C367.304 31.488 365.9 30.348 365.06 29.052C364.22 27.756 363.8 26.184 363.8 24.336C363.8 22.056 364.424 20.064 365.672 18.36C366.92 16.632 368.66 15.3 370.892 14.364C373.148 13.428 375.764 12.96 378.74 12.96C381.692 12.96 384.332 13.428 386.66 14.364C388.988 15.3 390.86 16.632 392.276 18.36C393.716 20.064 394.568 22.056 394.832 24.336L388.28 25.524C387.968 23.436 386.96 21.792 385.256 20.592C383.576 19.392 381.404 18.756 378.74 18.684C376.22 18.588 374.168 19.032 372.584 20.016C371.024 21 370.244 22.332 370.244 24.012C370.244 24.948 370.532 25.752 371.108 26.424C371.708 27.096 372.8 27.732 374.384 28.332C375.992 28.932 378.32 29.616 381.368 30.384C384.8 31.248 387.5 32.196 389.468 33.228C391.46 34.236 392.876 35.436 393.716 36.828C394.556 38.196 394.976 39.888 394.976 41.904C394.976 45.648 393.596 48.6 390.836 50.76C388.076 52.896 384.272 53.964 379.424 53.964ZM423.904 52.92C421.6 53.376 419.32 53.556 417.064 53.46C414.832 53.388 412.84 52.944 411.088 52.128C409.336 51.288 408.004 49.992 407.092 48.24C406.324 46.704 405.904 45.156 405.832 43.596C405.784 42.012 405.76 40.224 405.76 38.232V3.23999H412.168V37.944C412.168 39.528 412.18 40.884 412.204 42.012C412.252 43.14 412.504 44.112 412.96 44.928C413.824 46.464 415.192 47.364 417.064 47.628C418.96 47.892 421.24 47.82 423.904 47.412V52.92ZM397.876 19.332V14.04H423.904V19.332H397.876Z" fill="url(#paint0_linear_5497_3806)"/>
<path d="M465.76 54C462.208 54 458.968 53.376 456.04 52.128C453.112 50.88 450.592 49.092 448.48 46.764C446.368 44.412 444.736 41.58 443.584 38.268C442.456 34.932 441.892 31.176 441.892 27C441.892 21.48 442.876 16.704 444.844 12.672C446.812 8.64 449.584 5.532 453.16 3.348C456.736 1.13999 460.936 0.0359945 465.76 0.0359945C471.568 0.0359945 476.248 1.392 479.8 4.104C483.352 6.792 485.8 10.476 487.144 15.156L480.664 16.488C479.584 13.344 477.808 10.836 475.336 8.964C472.864 7.092 469.78 6.156 466.084 6.156C462.22 6.132 459.004 6.996 456.436 8.74799C453.892 10.476 451.972 12.912 450.676 16.056C449.38 19.2 448.72 22.848 448.696 27C448.672 31.128 449.308 34.752 450.604 37.872C451.9 40.992 453.832 43.44 456.4 45.216C458.992 46.968 462.22 47.856 466.084 47.88C469.42 47.904 472.228 47.268 474.508 45.972C476.788 44.676 478.552 42.804 479.8 40.356C481.048 37.908 481.804 34.968 482.068 31.536H471.052V26.244H488.836C488.908 26.724 488.944 27.3 488.944 27.972C488.968 28.62 488.98 29.064 488.98 29.304C488.98 34.032 488.092 38.268 486.316 42.012C484.564 45.732 481.96 48.66 478.504 50.796C475.072 52.932 470.824 54 465.76 54ZM496.17 52.92V-2.86102e-06H502.578V52.92H496.17ZM529.22 54C525.356 54 522.02 53.124 519.212 51.372C516.428 49.62 514.28 47.196 512.768 44.1C511.256 41.004 510.5 37.452 510.5 33.444C510.5 29.364 511.268 25.788 512.804 22.716C514.34 19.644 516.512 17.256 519.32 15.552C522.128 13.824 525.428 12.96 529.22 12.96C533.108 12.96 536.456 13.836 539.264 15.588C542.072 17.316 544.22 19.728 545.708 22.824C547.22 25.896 547.976 29.436 547.976 33.444C547.976 37.5 547.22 41.076 545.708 44.172C544.196 47.244 542.036 49.656 539.228 51.408C536.42 53.136 533.084 54 529.22 54ZM529.22 47.916C533.252 47.916 536.252 46.572 538.22 43.884C540.188 41.196 541.172 37.716 541.172 33.444C541.172 29.052 540.176 25.56 538.184 22.968C536.192 20.352 533.204 19.044 529.22 19.044C526.508 19.044 524.276 19.656 522.524 20.88C520.772 22.104 519.464 23.796 518.6 25.956C517.736 28.116 517.304 30.612 517.304 33.444C517.304 37.812 518.312 41.316 520.328 43.956C522.344 46.596 525.308 47.916 529.22 47.916ZM573.038 54C569.39 54 566.318 53.1 563.822 51.3C561.326 49.476 559.43 47.016 558.134 43.92C556.862 40.8 556.226 37.308 556.226 33.444C556.226 29.532 556.862 26.028 558.134 22.932C559.43 19.836 561.326 17.4 563.822 15.624C566.342 13.848 569.426 12.96 573.074 12.96C576.674 12.96 579.77 13.86 582.362 15.66C584.978 17.436 586.982 19.872 588.374 22.968C589.766 26.064 590.462 29.556 590.462 33.444C590.462 37.332 589.766 40.824 588.374 43.92C586.982 47.016 584.978 49.476 582.362 51.3C579.77 53.1 576.662 54 573.038 54ZM555.146 52.92V1.08H561.59V24.3H560.87V52.92H555.146ZM572.246 48.132C574.814 48.132 576.938 47.484 578.618 46.188C580.298 44.892 581.558 43.14 582.398 40.932C583.238 38.7 583.658 36.204 583.658 33.444C583.658 30.708 583.238 28.236 582.398 26.028C581.582 23.82 580.31 22.068 578.582 20.772C576.878 19.476 574.706 18.828 572.066 18.828C569.546 18.828 567.458 19.452 565.802 20.7C564.146 21.924 562.91 23.64 562.094 25.848C561.278 28.032 560.87 30.564 560.87 33.444C560.87 36.276 561.266 38.808 562.058 41.04C562.874 43.248 564.122 44.988 565.802 46.26C567.482 47.508 569.63 48.132 572.246 48.132ZM608.686 54C605.782 54 603.346 53.472 601.378 52.416C599.434 51.336 597.958 49.92 596.95 48.168C595.966 46.416 595.474 44.496 595.474 42.408C595.474 40.368 595.858 38.604 596.626 37.116C597.418 35.604 598.522 34.356 599.938 33.372C601.354 32.364 603.046 31.572 605.014 30.996C606.862 30.492 608.926 30.06 611.206 29.7C613.51 29.316 615.838 28.968 618.19 28.656C620.542 28.344 622.738 28.044 624.778 27.756L622.474 29.088C622.546 25.632 621.85 23.076 620.386 21.42C618.946 19.764 616.45 18.936 612.898 18.936C610.546 18.936 608.482 19.476 606.706 20.556C604.954 21.612 603.718 23.34 602.998 25.74L596.914 23.904C597.85 20.496 599.662 17.82 602.35 15.876C605.038 13.932 608.578 12.96 612.97 12.96C616.498 12.96 619.522 13.596 622.042 14.868C624.586 16.116 626.41 18.012 627.514 20.556C628.066 21.756 628.414 23.064 628.558 24.48C628.702 25.872 628.774 27.336 628.774 28.872V52.92H623.086V43.596L624.418 44.46C622.954 47.604 620.902 49.98 618.262 51.588C615.646 53.196 612.454 54 608.686 54ZM609.658 48.636C611.962 48.636 613.954 48.228 615.634 47.412C617.338 46.572 618.706 45.48 619.738 44.136C620.77 42.768 621.442 41.28 621.754 39.672C622.114 38.472 622.306 37.14 622.33 35.676C622.378 34.188 622.402 33.048 622.402 32.256L624.634 33.228C622.546 33.516 620.494 33.792 618.478 34.056C616.462 34.32 614.554 34.608 612.754 34.92C610.954 35.208 609.334 35.556 607.894 35.964C606.838 36.3 605.842 36.732 604.906 37.26C603.994 37.788 603.25 38.472 602.674 39.312C602.122 40.128 601.846 41.148 601.846 42.372C601.846 43.428 602.11 44.436 602.638 45.396C603.19 46.356 604.03 47.136 605.158 47.736C606.31 48.336 607.81 48.636 609.658 48.636ZM638.134 52.92V-2.86102e-06H644.542V52.92H638.134ZM686.714 54C683.042 54 679.73 53.376 676.778 52.128C673.85 50.88 671.426 49.104 669.506 46.8C667.61 44.472 666.374 41.724 665.798 38.556L672.422 37.512C673.262 40.776 675.002 43.332 677.642 45.18C680.306 47.004 683.438 47.916 687.038 47.916C689.366 47.916 691.466 47.556 693.338 46.836C695.234 46.092 696.734 45.036 697.838 43.668C698.942 42.3 699.494 40.68 699.494 38.808C699.494 37.656 699.29 36.672 698.882 35.856C698.498 35.016 697.958 34.308 697.262 33.732C696.59 33.132 695.822 32.628 694.958 32.22C694.094 31.812 693.194 31.476 692.258 31.212L679.046 27.288C677.606 26.856 676.214 26.316 674.87 25.668C673.526 24.996 672.326 24.168 671.27 23.184C670.214 22.176 669.374 20.976 668.75 19.584C668.126 18.168 667.814 16.5 667.814 14.58C667.814 11.508 668.606 8.892 670.19 6.73199C671.798 4.548 673.97 2.88 676.706 1.728C679.442 0.575997 682.526 0.0119963 685.958 0.0359945C689.438 0.0599957 692.546 0.683996 695.282 1.908C698.042 3.108 700.322 4.836 702.122 7.092C703.946 9.348 705.17 12.048 705.794 15.192L698.99 16.38C698.63 14.268 697.826 12.456 696.578 10.944C695.354 9.408 693.818 8.232 691.97 7.416C690.122 6.576 688.094 6.144 685.886 6.12C683.774 6.096 681.866 6.432 680.162 7.128C678.458 7.824 677.102 8.796 676.094 10.044C675.086 11.268 674.582 12.684 674.582 14.292C674.582 15.876 675.038 17.16 675.95 18.144C676.862 19.104 677.978 19.872 679.298 20.448C680.642 21 681.95 21.456 683.222 21.816L693.086 24.66C694.214 24.972 695.51 25.404 696.974 25.956C698.462 26.508 699.902 27.288 701.294 28.296C702.686 29.28 703.838 30.6 704.75 32.256C705.662 33.888 706.118 35.952 706.118 38.448C706.118 40.944 705.614 43.164 704.606 45.108C703.622 47.052 702.242 48.684 700.466 50.004C698.69 51.3 696.626 52.284 694.274 52.956C691.922 53.652 689.402 54 686.714 54ZM729.509 54C725.645 54 722.309 53.124 719.501 51.372C716.717 49.62 714.569 47.196 713.057 44.1C711.545 41.004 710.789 37.452 710.789 33.444C710.789 29.364 711.557 25.788 713.093 22.716C714.629 19.644 716.801 17.256 719.609 15.552C722.417 13.824 725.717 12.96 729.509 12.96C733.397 12.96 736.745 13.836 739.553 15.588C742.361 17.316 744.509 19.728 745.997 22.824C747.509 25.896 748.265 29.436 748.265 33.444C748.265 37.5 747.509 41.076 745.997 44.172C744.485 47.244 742.325 49.656 739.517 51.408C736.709 53.136 733.373 54 729.509 54ZM729.509 47.916C733.541 47.916 736.541 46.572 738.509 43.884C740.477 41.196 741.461 37.716 741.461 33.444C741.461 29.052 740.465 25.56 738.473 22.968C736.481 20.352 733.493 19.044 729.509 19.044C726.797 19.044 724.565 19.656 722.813 20.88C721.061 22.104 719.753 23.796 718.889 25.956C718.025 28.116 717.593 30.612 717.593 33.444C717.593 37.812 718.601 41.316 720.617 43.956C722.633 46.596 725.597 47.916 729.509 47.916ZM759.179 52.92V11.916C759.179 10.908 759.227 9.888 759.323 8.856C759.419 7.8 759.635 6.78 759.971 5.796C760.307 4.788 760.859 3.864 761.627 3.024C762.515 2.04 763.487 1.344 764.543 0.935994C765.599 0.503996 766.667 0.239997 767.747 0.143995C768.851 0.0479965 769.895 -2.86102e-06 770.879 -2.86102e-06H775.811V5.328H771.239C769.343 5.328 767.927 5.796 766.991 6.73199C766.055 7.644 765.587 9.036 765.587 10.908V52.92H759.179ZM752.591 19.332V14.04H775.811V19.332H752.591ZM802.545 52.92C800.241 53.376 797.961 53.556 795.705 53.46C793.473 53.388 791.481 52.944 789.729 52.128C787.977 51.288 786.645 49.992 785.733 48.24C784.965 46.704 784.545 45.156 784.473 43.596C784.425 42.012 784.401 40.224 784.401 38.232V3.23999H790.809V37.944C790.809 39.528 790.821 40.884 790.845 42.012C790.893 43.14 791.145 44.112 791.601 44.928C792.465 46.464 793.833 47.364 795.705 47.628C797.601 47.892 799.881 47.82 802.545 47.412V52.92ZM776.517 19.332V14.04H802.545V19.332H776.517ZM817.999 52.92L806.119 14.004L812.491 14.04L821.167 42.48L829.915 14.04H835.567L844.279 42.48L852.991 14.04H859.327L847.447 52.92H842.119L832.723 23.364L823.327 52.92H817.999ZM873.981 54C871.077 54 868.641 53.472 866.673 52.416C864.729 51.336 863.253 49.92 862.245 48.168C861.261 46.416 860.769 44.496 860.769 42.408C860.769 40.368 861.153 38.604 861.921 37.116C862.713 35.604 863.817 34.356 865.233 33.372C866.649 32.364 868.341 31.572 870.309 30.996C872.157 30.492 874.221 30.06 876.501 29.7C878.805 29.316 881.133 28.968 883.485 28.656C885.837 28.344 888.033 28.044 890.073 27.756L887.769 29.088C887.841 25.632 887.145 23.076 885.681 21.42C884.241 19.764 881.745 18.936 878.193 18.936C875.841 18.936 873.777 19.476 872.001 20.556C870.249 21.612 869.013 23.34 868.293 25.74L862.209 23.904C863.145 20.496 864.957 17.82 867.645 15.876C870.333 13.932 873.873 12.96 878.265 12.96C881.793 12.96 884.817 13.596 887.337 14.868C889.881 16.116 891.705 18.012 892.809 20.556C893.361 21.756 893.709 23.064 893.853 24.48C893.997 25.872 894.069 27.336 894.069 28.872V52.92H888.381V43.596L889.713 44.46C888.249 47.604 886.197 49.98 883.557 51.588C880.941 53.196 877.749 54 873.981 54ZM874.953 48.636C877.257 48.636 879.249 48.228 880.929 47.412C882.633 46.572 884.001 45.48 885.033 44.136C886.065 42.768 886.737 41.28 887.049 39.672C887.409 38.472 887.601 37.14 887.625 35.676C887.673 34.188 887.697 33.048 887.697 32.256L889.929 33.228C887.841 33.516 885.789 33.792 883.773 34.056C881.757 34.32 879.849 34.608 878.049 34.92C876.249 35.208 874.629 35.556 873.189 35.964C872.133 36.3 871.137 36.732 870.201 37.26C869.289 37.788 868.545 38.472 867.969 39.312C867.417 40.128 867.141 41.148 867.141 42.372C867.141 43.428 867.405 44.436 867.933 45.396C868.485 46.356 869.325 47.136 870.453 47.736C871.605 48.336 873.105 48.636 874.953 48.636ZM902.709 52.92V14.04H908.433V23.436L907.497 22.212C907.953 21.012 908.541 19.908 909.261 18.9C910.005 17.892 910.833 17.064 911.745 16.416C912.753 15.6 913.893 14.976 915.165 14.544C916.437 14.112 917.733 13.86 919.053 13.788C920.373 13.692 921.609 13.776 922.761 14.04V20.052C921.417 19.692 919.941 19.596 918.333 19.764C916.725 19.932 915.237 20.52 913.869 21.528C912.621 22.416 911.649 23.496 910.953 24.768C910.281 26.04 909.813 27.42 909.549 28.908C909.285 30.372 909.153 31.872 909.153 33.408V52.92H902.709ZM944.993 54C941.177 54 937.841 53.16 934.985 51.48C932.153 49.776 929.945 47.412 928.361 44.388C926.777 41.34 925.985 37.788 925.985 33.732C925.985 29.484 926.765 25.812 928.325 22.716C929.885 19.596 932.057 17.196 934.841 15.516C937.649 13.812 940.937 12.96 944.705 12.96C948.617 12.96 951.941 13.86 954.677 15.66C957.437 17.46 959.501 20.028 960.869 23.364C962.261 26.7 962.861 30.672 962.669 35.28H956.189V32.976C956.117 28.2 955.145 24.636 953.273 22.284C951.401 19.908 948.617 18.72 944.921 18.72C940.961 18.72 937.949 19.992 935.885 22.536C933.821 25.08 932.789 28.728 932.789 33.48C932.789 38.064 933.821 41.616 935.885 44.136C937.949 46.656 940.889 47.916 944.705 47.916C947.273 47.916 949.505 47.328 951.401 46.152C953.297 44.976 954.785 43.284 955.865 41.076L962.021 43.2C960.509 46.632 958.229 49.296 955.181 51.192C952.157 53.064 948.761 54 944.993 54ZM930.629 35.28V30.132H959.357V35.28H930.629ZM152.582 146C148.91 146 145.598 145.376 142.646 144.128C139.718 142.88 137.294 141.104 135.374 138.8C133.478 136.472 132.242 133.724 131.666 130.556L138.29 129.512C139.13 132.776 140.87 135.332 143.51 137.18C146.174 139.004 149.306 139.916 152.906 139.916C155.234 139.916 157.334 139.556 159.206 138.836C161.102 138.092 162.602 137.036 163.706 135.668C164.81 134.3 165.362 132.68 165.362 130.808C165.362 129.656 165.158 128.672 164.75 127.856C164.366 127.016 163.826 126.308 163.13 125.732C162.458 125.132 161.69 124.628 160.826 124.22C159.962 123.812 159.062 123.476 158.126 123.212L144.914 119.288C143.474 118.856 142.082 118.316 140.738 117.668C139.394 116.996 138.194 116.168 137.138 115.184C136.082 114.176 135.242 112.976 134.618 111.584C133.994 110.168 133.682 108.5 133.682 106.58C133.682 103.508 134.474 100.892 136.058 98.732C137.666 96.548 139.838 94.88 142.574 93.728C145.31 92.576 148.394 92.012 151.826 92.036C155.306 92.06 158.414 92.684 161.15 93.908C163.91 95.108 166.19 96.836 167.99 99.092C169.814 101.348 171.038 104.048 171.662 107.192L164.858 108.38C164.498 106.268 163.694 104.456 162.446 102.944C161.222 101.408 159.686 100.232 157.838 99.416C155.99 98.576 153.962 98.144 151.754 98.12C149.642 98.096 147.734 98.432 146.03 99.128C144.326 99.824 142.97 100.796 141.962 102.044C140.954 103.268 140.45 104.684 140.45 106.292C140.45 107.876 140.906 109.16 141.818 110.144C142.73 111.104 143.846 111.872 145.166 112.448C146.51 113 147.818 113.456 149.09 113.816L158.954 116.66C160.082 116.972 161.378 117.404 162.842 117.956C164.33 118.508 165.77 119.288 167.162 120.296C168.554 121.28 169.706 122.6 170.618 124.256C171.53 125.888 171.986 127.952 171.986 130.448C171.986 132.944 171.482 135.164 170.474 137.108C169.49 139.052 168.11 140.684 166.334 142.004C164.558 143.3 162.494 144.284 160.142 144.956C157.79 145.652 155.27 146 152.582 146ZM195.377 146C191.513 146 188.177 145.124 185.369 143.372C182.585 141.62 180.437 139.196 178.925 136.1C177.413 133.004 176.657 129.452 176.657 125.444C176.657 121.364 177.425 117.788 178.961 114.716C180.497 111.644 182.669 109.256 185.477 107.552C188.285 105.824 191.585 104.96 195.377 104.96C199.265 104.96 202.613 105.836 205.421 107.588C208.229 109.316 210.377 111.728 211.865 114.824C213.377 117.896 214.133 121.436 214.133 125.444C214.133 129.5 213.377 133.076 211.865 136.172C210.353 139.244 208.193 141.656 205.385 143.408C202.577 145.136 199.241 146 195.377 146ZM195.377 139.916C199.409 139.916 202.409 138.572 204.377 135.884C206.345 133.196 207.329 129.716 207.329 125.444C207.329 121.052 206.333 117.56 204.341 114.968C202.349 112.352 199.361 111.044 195.377 111.044C192.665 111.044 190.433 111.656 188.681 112.88C186.929 114.104 185.621 115.796 184.757 117.956C183.893 120.116 183.461 122.612 183.461 125.444C183.461 129.812 184.469 133.316 186.485 135.956C188.501 138.596 191.465 139.916 195.377 139.916ZM222.06 144.92V92H228.468V144.92H222.06ZM253.309 145.928C250.813 145.928 248.665 145.532 246.865 144.74C245.089 143.948 243.613 142.892 242.437 141.572C241.261 140.252 240.337 138.788 239.665 137.18C238.993 135.572 238.513 133.928 238.225 132.248C237.961 130.568 237.829 128.996 237.829 127.532V106.04H244.309V125.516C244.309 127.34 244.477 129.104 244.813 130.808C245.149 132.512 245.713 134.048 246.505 135.416C247.321 136.784 248.401 137.864 249.745 138.656C251.113 139.448 252.817 139.844 254.857 139.844C256.465 139.844 257.929 139.568 259.249 139.016C260.569 138.464 261.697 137.648 262.633 136.568C263.569 135.464 264.289 134.072 264.793 132.392C265.297 130.712 265.549 128.756 265.549 126.524L269.761 127.82C269.761 131.564 269.077 134.792 267.709 137.504C266.365 140.216 264.457 142.304 261.985 143.768C259.537 145.208 256.645 145.928 253.309 145.928ZM266.269 144.92V134.516H265.549V106.04H271.993V144.92H266.269ZM303.061 144.92C300.757 145.376 298.477 145.556 296.221 145.46C293.989 145.388 291.997 144.944 290.245 144.128C288.493 143.288 287.161 141.992 286.249 140.24C285.481 138.704 285.061 137.156 284.989 135.596C284.941 134.012 284.917 132.224 284.917 130.232V95.24H291.325V129.944C291.325 131.528 291.337 132.884 291.361 134.012C291.409 135.14 291.661 136.112 292.117 136.928C292.981 138.464 294.349 139.364 296.221 139.628C298.117 139.892 300.397 139.82 303.061 139.412V144.92ZM277.033 111.332V106.04H303.061V111.332H277.033ZM310.954 99.164V92.54H317.362V99.164H310.954ZM310.954 144.92V106.04H317.362V144.92H310.954ZM344.004 146C340.14 146 336.804 145.124 333.996 143.372C331.212 141.62 329.064 139.196 327.552 136.1C326.04 133.004 325.284 129.452 325.284 125.444C325.284 121.364 326.052 117.788 327.588 114.716C329.124 111.644 331.296 109.256 334.104 107.552C336.912 105.824 340.212 104.96 344.004 104.96C347.892 104.96 351.24 105.836 354.048 107.588C356.856 109.316 359.004 111.728 360.492 114.824C362.004 117.896 362.76 121.436 362.76 125.444C362.76 129.5 362.004 133.076 360.492 136.172C358.98 139.244 356.82 141.656 354.012 143.408C351.204 145.136 347.868 146 344.004 146ZM344.004 139.916C348.036 139.916 351.036 138.572 353.004 135.884C354.972 133.196 355.956 129.716 355.956 125.444C355.956 121.052 354.96 117.56 352.968 114.968C350.976 112.352 347.988 111.044 344.004 111.044C341.292 111.044 339.06 111.656 337.308 112.88C335.556 114.104 334.248 115.796 333.384 117.956C332.52 120.116 332.088 122.612 332.088 125.444C332.088 129.812 333.096 133.316 335.112 135.956C337.128 138.596 340.092 139.916 344.004 139.916ZM397.65 144.92V125.444C397.65 123.596 397.482 121.82 397.146 120.116C396.834 118.412 396.27 116.888 395.454 115.544C394.662 114.176 393.582 113.096 392.214 112.304C390.87 111.512 389.166 111.116 387.102 111.116C385.494 111.116 384.03 111.392 382.71 111.944C381.414 112.472 380.298 113.288 379.362 114.392C378.426 115.496 377.694 116.888 377.166 118.568C376.662 120.224 376.41 122.18 376.41 124.436L372.198 123.14C372.198 119.372 372.87 116.144 374.214 113.456C375.582 110.744 377.49 108.668 379.938 107.228C382.41 105.764 385.314 105.032 388.65 105.032C391.17 105.032 393.318 105.428 395.094 106.22C396.87 107.012 398.346 108.068 399.522 109.388C400.698 110.684 401.622 112.148 402.294 113.78C402.966 115.388 403.434 117.032 403.698 118.712C403.986 120.368 404.13 121.94 404.13 123.428V144.92H397.65ZM369.93 144.92V106.04H375.69V116.444H376.41V144.92H369.93ZM427.458 145.964C422.826 145.964 419.022 144.956 416.046 142.94C413.094 140.9 411.282 138.056 410.61 134.408L417.162 133.364C417.69 135.476 418.902 137.156 420.798 138.404C422.694 139.628 425.046 140.24 427.854 140.24C430.518 140.24 432.606 139.688 434.118 138.584C435.63 137.48 436.386 135.98 436.386 134.084C436.386 132.98 436.134 132.092 435.63 131.42C435.126 130.724 434.082 130.076 432.498 129.476C430.938 128.876 428.574 128.156 425.406 127.316C421.974 126.404 419.274 125.456 417.306 124.472C415.338 123.488 413.934 122.348 413.094 121.052C412.254 119.756 411.834 118.184 411.834 116.336C411.834 114.056 412.458 112.064 413.706 110.36C414.954 108.632 416.694 107.3 418.926 106.364C421.182 105.428 423.798 104.96 426.774 104.96C429.726 104.96 432.366 105.428 434.694 106.364C437.022 107.3 438.894 108.632 440.31 110.36C441.75 112.064 442.602 114.056 442.866 116.336L436.314 117.524C436.002 115.436 434.994 113.792 433.29 112.592C431.61 111.392 429.438 110.756 426.774 110.684C424.254 110.588 422.202 111.032 420.618 112.016C419.058 113 418.278 114.332 418.278 116.012C418.278 116.948 418.566 117.752 419.142 118.424C419.742 119.096 420.834 119.732 422.418 120.332C424.026 120.932 426.354 121.616 429.402 122.384C432.834 123.248 435.534 124.196 437.502 125.228C439.494 126.236 440.91 127.436 441.75 128.828C442.59 130.196 443.01 131.888 443.01 133.904C443.01 137.648 441.63 140.6 438.87 142.76C436.11 144.896 432.306 145.964 427.458 145.964ZM480.771 146C477.891 146 475.203 145.58 472.707 144.74C470.211 143.9 468.123 142.58 466.443 140.78C465.147 139.34 464.175 137.756 463.527 136.028C462.903 134.276 462.555 132.428 462.483 130.484C462.483 128.588 462.759 126.74 463.311 124.94C463.863 123.116 464.739 121.496 465.939 120.08C466.563 119.312 467.259 118.664 468.027 118.136C468.819 117.584 469.611 117.116 470.403 116.732C468.747 114.956 467.475 113.288 466.587 111.728C465.723 110.168 465.291 108.284 465.291 106.076C465.291 103.268 466.011 100.736 467.451 98.48C468.915 96.2 470.907 94.532 473.427 93.476C474.651 92.948 475.899 92.588 477.171 92.396C478.467 92.18 479.727 92.072 480.951 92.072C483.015 92.072 485.019 92.36 486.963 92.936C488.907 93.512 490.563 94.448 491.931 95.744C492.843 96.512 493.623 97.4 494.271 98.408C494.919 99.392 495.423 100.424 495.783 101.504L489.519 103.124C489.063 101.9 488.307 100.868 487.251 100.028C486.411 99.308 485.427 98.816 484.299 98.552C483.195 98.288 482.079 98.156 480.951 98.156C479.079 98.156 477.387 98.516 475.875 99.236C474.531 99.884 473.523 100.796 472.851 101.972C472.179 103.124 471.843 104.492 471.843 106.076C471.843 107.444 472.071 108.572 472.527 109.46C473.007 110.324 473.667 111.248 474.507 112.232C475.011 112.76 475.575 113.324 476.199 113.924C476.847 114.5 477.507 115.1 478.179 115.724L493.443 129.908C493.515 129.308 493.563 128.696 493.587 128.072C493.611 127.448 493.623 126.848 493.623 126.272L493.587 119.108H499.455V127.532C499.455 129.236 499.395 130.688 499.275 131.888C499.179 133.088 499.011 134.084 498.771 134.876L505.359 140.96L501.183 145.424L495.711 140.24C494.775 141.296 493.659 142.22 492.363 143.012C491.067 143.804 489.771 144.404 488.475 144.812C487.251 145.268 485.991 145.58 484.695 145.748C483.399 145.916 482.091 146 480.771 146ZM480.915 139.844C482.091 139.844 483.159 139.772 484.119 139.628C485.079 139.484 485.991 139.208 486.855 138.8C488.007 138.248 488.895 137.72 489.519 137.216C490.143 136.712 490.659 136.244 491.067 135.812L475.263 121.34C474.399 121.628 473.583 122.012 472.815 122.492C472.071 122.972 471.423 123.536 470.871 124.184C470.247 124.952 469.779 125.852 469.467 126.884C469.179 127.916 469.035 129.008 469.035 130.16C469.059 131.384 469.263 132.512 469.647 133.544C470.031 134.576 470.571 135.5 471.267 136.316C472.323 137.54 473.751 138.44 475.551 139.016C477.351 139.568 479.139 139.844 480.915 139.844ZM524.218 144.92V93.08H544.702C545.206 93.08 545.806 93.104 546.502 93.152C547.198 93.176 547.87 93.248 548.518 93.368C551.326 93.8 553.678 94.76 555.574 96.248C557.494 97.736 558.934 99.62 559.894 101.9C560.854 104.156 561.334 106.664 561.334 109.424C561.334 112.16 560.842 114.668 559.858 116.948C558.898 119.204 557.458 121.088 555.538 122.6C553.642 124.088 551.302 125.048 548.518 125.48C547.87 125.576 547.198 125.648 546.502 125.696C545.806 125.744 545.206 125.768 544.702 125.768H530.626V144.92H524.218ZM530.626 119.684H544.486C544.942 119.684 545.458 119.66 546.034 119.612C546.634 119.564 547.198 119.48 547.726 119.36C549.382 118.976 550.726 118.28 551.758 117.272C552.814 116.24 553.582 115.04 554.062 113.672C554.542 112.28 554.782 110.864 554.782 109.424C554.782 107.984 554.542 106.58 554.062 105.212C553.582 103.82 552.814 102.608 551.758 101.576C550.726 100.544 549.382 99.848 547.726 99.488C547.198 99.344 546.634 99.26 546.034 99.236C545.458 99.188 544.942 99.164 544.486 99.164H530.626V119.684ZM567.795 144.92V106.04H573.519V115.436L572.583 114.212C573.039 113.012 573.627 111.908 574.347 110.9C575.091 109.892 575.919 109.064 576.831 108.416C577.839 107.6 578.979 106.976 580.251 106.544C581.523 106.112 582.819 105.86 584.139 105.788C585.459 105.692 586.695 105.776 587.847 106.04V112.052C586.503 111.692 585.027 111.596 583.419 111.764C581.811 111.932 580.323 112.52 578.955 113.528C577.707 114.416 576.735 115.496 576.039 116.768C575.367 118.04 574.899 119.42 574.635 120.908C574.371 122.372 574.239 123.872 574.239 125.408V144.92H567.795ZM609.791 146C605.927 146 602.591 145.124 599.783 143.372C596.999 141.62 594.851 139.196 593.339 136.1C591.827 133.004 591.071 129.452 591.071 125.444C591.071 121.364 591.839 117.788 593.375 114.716C594.911 111.644 597.083 109.256 599.891 107.552C602.699 105.824 605.999 104.96 609.791 104.96C613.679 104.96 617.027 105.836 619.835 107.588C622.643 109.316 624.791 111.728 626.279 114.824C627.791 117.896 628.547 121.436 628.547 125.444C628.547 129.5 627.791 133.076 626.279 136.172C624.767 139.244 622.607 141.656 619.799 143.408C616.991 145.136 613.655 146 609.791 146ZM609.791 139.916C613.823 139.916 616.823 138.572 618.791 135.884C620.759 133.196 621.743 129.716 621.743 125.444C621.743 121.052 620.747 117.56 618.755 114.968C616.763 112.352 613.775 111.044 609.791 111.044C607.079 111.044 604.847 111.656 603.095 112.88C601.343 114.104 600.035 115.796 599.171 117.956C598.307 120.116 597.875 122.612 597.875 125.444C597.875 129.812 598.883 133.316 600.899 135.956C602.915 138.596 605.879 139.916 609.791 139.916ZM644.859 144.92L630.747 106.04H637.227L648.135 136.748L659.007 106.04H665.523L651.411 144.92H644.859ZM672.034 99.164V92.54H678.442V99.164H672.034ZM672.034 144.92V106.04H678.442V144.92H672.034ZM703.788 146C700.164 146 697.056 145.1 694.464 143.3C691.872 141.476 689.868 139.016 688.452 135.92C687.06 132.824 686.364 129.332 686.364 125.444C686.364 121.556 687.06 118.064 688.452 114.968C689.868 111.872 691.872 109.436 694.464 107.66C697.056 105.86 700.152 104.96 703.752 104.96C707.424 104.96 710.508 105.848 713.004 107.624C715.5 109.4 717.384 111.836 718.656 114.932C719.952 118.028 720.6 121.532 720.6 125.444C720.6 129.308 719.952 132.8 718.656 135.92C717.384 139.016 715.5 141.476 713.004 143.3C710.508 145.1 707.436 146 703.788 146ZM704.58 140.132C707.196 140.132 709.344 139.508 711.024 138.26C712.704 136.988 713.94 135.248 714.732 133.04C715.548 130.808 715.956 128.276 715.956 125.444C715.956 122.564 715.548 120.032 714.732 117.848C713.94 115.64 712.716 113.924 711.06 112.7C709.404 111.452 707.304 110.828 704.76 110.828C702.12 110.828 699.936 111.476 698.208 112.772C696.504 114.068 695.232 115.82 694.392 118.028C693.576 120.236 693.168 122.708 693.168 125.444C693.168 128.204 693.588 130.7 694.428 132.932C695.268 135.14 696.528 136.892 698.208 138.188C699.912 139.484 702.036 140.132 704.58 140.132ZM715.956 144.92V116.3H715.236V93.08H721.68V144.92H715.956ZM747.894 146C744.078 146 740.742 145.16 737.886 143.48C735.054 141.776 732.846 139.412 731.262 136.388C729.678 133.34 728.886 129.788 728.886 125.732C728.886 121.484 729.666 117.812 731.226 114.716C732.786 111.596 734.958 109.196 737.742 107.516C740.55 105.812 743.838 104.96 747.606 104.96C751.518 104.96 754.842 105.86 757.578 107.66C760.338 109.46 762.402 112.028 763.77 115.364C765.162 118.7 765.762 122.672 765.57 127.28H759.09V124.976C759.018 120.2 758.046 116.636 756.174 114.284C754.302 111.908 751.518 110.72 747.822 110.72C743.862 110.72 740.85 111.992 738.786 114.536C736.722 117.08 735.69 120.728 735.69 125.48C735.69 130.064 736.722 133.616 738.786 136.136C740.85 138.656 743.79 139.916 747.606 139.916C750.174 139.916 752.406 139.328 754.302 138.152C756.198 136.976 757.686 135.284 758.766 133.076L764.922 135.2C763.41 138.632 761.13 141.296 758.082 143.192C755.058 145.064 751.662 146 747.894 146ZM733.53 127.28V122.132H762.258V127.28H733.53ZM772.865 144.92V106.04H778.589V115.436L777.653 114.212C778.109 113.012 778.697 111.908 779.417 110.9C780.161 109.892 780.989 109.064 781.901 108.416C782.909 107.6 784.049 106.976 785.321 106.544C786.593 106.112 787.889 105.86 789.209 105.788C790.529 105.692 791.765 105.776 792.917 106.04V112.052C791.573 111.692 790.097 111.596 788.489 111.764C786.881 111.932 785.393 112.52 784.025 113.528C782.777 114.416 781.805 115.496 781.109 116.768C780.437 118.04 779.969 119.42 779.705 120.908C779.441 122.372 779.309 123.872 779.309 125.408V144.92H772.865ZM812.286 145.964C807.654 145.964 803.85 144.956 800.874 142.94C797.922 140.9 796.11 138.056 795.438 134.408L801.99 133.364C802.518 135.476 803.73 137.156 805.626 138.404C807.522 139.628 809.874 140.24 812.682 140.24C815.346 140.24 817.434 139.688 818.946 138.584C820.458 137.48 821.214 135.98 821.214 134.084C821.214 132.98 820.962 132.092 820.458 131.42C819.954 130.724 818.91 130.076 817.326 129.476C815.766 128.876 813.402 128.156 810.234 127.316C806.802 126.404 804.102 125.456 802.134 124.472C800.166 123.488 798.762 122.348 797.922 121.052C797.082 119.756 796.662 118.184 796.662 116.336C796.662 114.056 797.286 112.064 798.534 110.36C799.782 108.632 801.522 107.3 803.754 106.364C806.01 105.428 808.626 104.96 811.602 104.96C814.554 104.96 817.194 105.428 819.522 106.364C821.85 107.3 823.722 108.632 825.138 110.36C826.578 112.064 827.43 114.056 827.694 116.336L821.142 117.524C820.83 115.436 819.822 113.792 818.118 112.592C816.438 111.392 814.266 110.756 811.602 110.684C809.082 110.588 807.03 111.032 805.446 112.016C803.886 113 803.106 114.332 803.106 116.012C803.106 116.948 803.394 117.752 803.97 118.424C804.57 119.096 805.662 119.732 807.246 120.332C808.854 120.932 811.182 121.616 814.23 122.384C817.662 123.248 820.362 124.196 822.33 125.228C824.322 126.236 825.738 127.436 826.578 128.828C827.418 130.196 827.838 131.888 827.838 133.904C827.838 137.648 826.458 140.6 823.698 142.76C820.938 144.896 817.134 145.964 812.286 145.964Z" fill="white"/>
<defs>
<linearGradient id="paint0_linear_5497_3806" x1="9.90458" y1="70.92" x2="171.607" y2="461.135" gradientUnits="userSpaceOnUse">
<stop stop-color="#4144F2"/>
<stop offset="0.115385" stop-color="#E59CFF"/>
<stop offset="0.394231" stop-color="#D85A88"/>
</linearGradient>
</defs>
</svg>
