<svg width="1000" height="78" viewBox="0 0 1000 78" fill="none" xmlns="http://www.w3.org/2000/svg">
<path d="M85.7746 25.8V52.2H81.1926V31.4834H81.1315L72.9451 52.2H69.8904L61.5207 31.4834H61.4596V52.2H57.2441V25.8H63.8422L71.4177 45.3556H71.5399L79.5431 25.8H85.7746ZM89.5624 27.8167C89.5624 27.0834 89.8067 26.4723 90.3566 25.9834C90.9064 25.4945 91.5173 25.25 92.2505 25.25C93.0447 25.25 93.7167 25.4945 94.2054 25.9834C94.6942 26.4723 94.9996 27.0834 94.9996 27.8167C94.9996 28.55 94.7553 29.1612 94.2054 29.65C93.6556 30.1389 93.0447 30.3834 92.2505 30.3834C91.4562 30.3834 90.8453 30.1389 90.3566 29.65C89.8678 29.1 89.5624 28.4889 89.5624 27.8167ZM94.5109 33.2556V52.2H90.0511V33.2556H94.5109ZM108.012 48.9612C108.684 48.9612 109.418 48.8389 110.212 48.4723C111.006 48.1667 111.739 47.7389 112.411 47.25V51.4056C111.678 51.8334 110.884 52.1389 109.967 52.3223C109.051 52.5056 108.074 52.6278 106.974 52.6278C104.164 52.6278 101.903 51.7723 100.193 50C98.4208 48.2278 97.5655 45.9667 97.5655 43.2778C97.5655 40.2223 98.4819 37.7167 100.254 35.7612C102.025 33.8056 104.53 32.8278 107.829 32.8278C108.684 32.8278 109.54 32.95 110.334 33.1334C111.189 33.3167 111.861 33.6223 112.35 33.8667V38.1445C111.678 37.6556 110.945 37.2278 110.273 36.9834C109.54 36.7389 108.807 36.5556 108.074 36.5556C106.302 36.5556 104.897 37.1056 103.797 38.2667C102.697 39.4278 102.209 40.9556 102.209 42.9112C102.209 44.8056 102.758 46.3334 103.797 47.3723C104.836 48.4112 106.241 48.9612 108.012 48.9612ZM125.057 32.95C125.424 32.95 125.729 32.95 126.035 33.0112C126.34 33.0723 126.585 33.1334 126.768 33.1945V37.7167C126.524 37.5334 126.218 37.35 125.729 37.2278C125.241 37.1056 124.752 36.9834 124.08 36.9834C122.98 36.9834 122.064 37.4723 121.331 38.3889C120.598 39.3056 120.17 40.7112 120.17 42.6667V52.2H115.71V33.2556H120.17V36.25H120.231C120.659 35.2112 121.27 34.4167 122.064 33.8056C122.919 33.2556 123.897 32.95 125.057 32.95ZM127.012 43.0334C127.012 39.9167 127.929 37.4112 129.639 35.5778C131.411 33.7445 133.855 32.8278 136.971 32.8278C139.903 32.8278 142.225 33.6834 143.874 35.4556C145.524 37.2278 146.379 39.6112 146.379 42.6056C146.379 45.6612 145.462 48.1056 143.752 49.9389C141.98 51.7723 139.598 52.6889 136.543 52.6889C133.61 52.6889 131.289 51.8334 129.578 50.1223C127.868 48.35 127.012 45.9667 127.012 43.0334ZM131.655 42.85C131.655 44.8056 132.083 46.3334 133 47.3723C133.916 48.4112 135.199 48.9612 136.848 48.9612C138.437 48.9612 139.72 48.4723 140.575 47.3723C141.43 46.3334 141.858 44.8056 141.858 42.7278C141.858 40.7112 141.43 39.1834 140.575 38.0834C139.72 37.0445 138.437 36.4945 136.909 36.4945C135.26 36.4945 134.038 37.0445 133.122 38.1445C132.083 39.3056 131.655 40.8334 131.655 42.85ZM153.038 38.2667C153.038 38.8778 153.221 39.4278 153.649 39.7945C154.077 40.1612 154.932 40.5889 156.337 41.1389C158.109 41.8723 159.392 42.6667 160.064 43.5223C160.797 44.4389 161.163 45.4778 161.163 46.7612C161.163 48.5334 160.491 49.9389 159.086 51.0389C157.742 52.1389 155.848 52.6278 153.527 52.6278C152.733 52.6278 151.877 52.5056 150.9 52.3223C149.922 52.1389 149.128 51.8945 148.456 51.5889V47.1889C149.25 47.7389 150.167 48.2278 151.083 48.5334C151.999 48.8389 152.855 49.0223 153.649 49.0223C154.626 49.0223 155.421 48.9 155.848 48.5945C156.337 48.2889 156.581 47.8612 156.581 47.1889C156.581 46.5778 156.337 46.0889 155.848 45.6C155.36 45.1723 154.382 44.6834 153.038 44.1334C151.389 43.4612 150.228 42.6667 149.556 41.8112C148.884 40.9556 148.517 39.8556 148.517 38.5112C148.517 36.8 149.189 35.3945 150.533 34.2945C151.877 33.1945 153.649 32.6445 155.787 32.6445C156.459 32.6445 157.192 32.7056 157.987 32.8889C158.781 33.0723 159.514 33.2556 160.064 33.4389V37.7778C159.453 37.4112 158.781 37.0445 157.987 36.7389C157.192 36.4334 156.398 36.3112 155.665 36.3112C154.81 36.3112 154.138 36.4945 153.71 36.8C153.282 37.2278 153.038 37.6556 153.038 38.2667ZM163.057 43.0334C163.057 39.9167 163.974 37.4112 165.684 35.5778C167.456 33.7445 169.9 32.8278 173.015 32.8278C175.948 32.8278 178.269 33.6834 179.919 35.4556C181.568 37.2278 182.424 39.6112 182.424 42.6056C182.424 45.6612 181.507 48.1056 179.797 49.9389C178.025 51.7723 175.642 52.6889 172.588 52.6889C169.655 52.6889 167.334 51.8334 165.623 50.1223C163.974 48.35 163.057 45.9667 163.057 43.0334ZM167.7 42.85C167.7 44.8056 168.128 46.3334 169.044 47.3723C169.961 48.4112 171.244 48.9612 172.893 48.9612C174.482 48.9612 175.765 48.4723 176.62 47.3723C177.475 46.3334 177.903 44.8056 177.903 42.7278C177.903 40.7112 177.475 39.1834 176.62 38.0834C175.765 37.0445 174.482 36.4945 172.954 36.4945C171.305 36.4945 170.083 37.0445 169.167 38.1445C168.189 39.3056 167.7 40.8334 167.7 42.85ZM197.269 36.9223H190.61V52.2H186.089V36.9223H182.913V33.2556H186.089V30.6278C186.089 28.6723 186.761 27.0223 188.044 25.7389C189.327 24.4556 190.977 23.8445 192.993 23.8445C193.543 23.8445 194.031 23.9056 194.459 23.9056C194.887 23.9056 195.253 24.0278 195.559 24.15V28C195.437 27.9389 195.131 27.8167 194.765 27.6945C194.398 27.5723 193.97 27.5112 193.482 27.5112C192.565 27.5112 191.832 27.8167 191.343 28.3667C190.855 28.9167 190.61 29.8334 190.61 30.9334V33.1945H197.269V28.9167L201.729 27.5723V33.1945H206.25V36.8612H201.729V45.7223C201.729 46.8834 201.974 47.6778 202.34 48.1667C202.768 48.6556 203.44 48.9 204.356 48.9C204.601 48.9 204.906 48.8389 205.273 48.7167C205.639 48.5945 205.945 48.4723 206.189 48.2889V51.9556C205.883 52.1389 205.456 52.2612 204.784 52.3834C204.112 52.5056 203.501 52.5667 202.829 52.5667C200.935 52.5667 199.53 52.0778 198.613 51.1C197.697 50.1223 197.208 48.5945 197.208 46.5778L197.269 36.9223Z" fill="#FEFEFE"/>
<path d="M20.8938 17H0V37.9H20.8938V17Z" fill="#FEFEFE"/>
<path d="M43.9876 17H23.0938V37.9H43.9876V17Z" fill="#FEFEFE"/>
<path d="M20.8938 40.1H0V61H20.8938V40.1Z" fill="#FEFEFE"/>
<path d="M43.9876 40.1H23.0938V61H43.9876V40.1Z" fill="#FEFEFE"/>
<path d="M321.004 62.223C329.645 60.6993 336.782 59.4385 336.864 59.4211L337.013 59.3896L328.855 49.7036C324.368 44.3763 320.697 39.9969 320.697 39.9717C320.697 39.9239 329.121 16.7687 329.168 16.6864C329.184 16.6588 334.916 26.5381 343.064 40.6343C350.692 53.8315 356.98 64.7126 357.039 64.8146L357.145 65L331.22 64.9967L305.294 64.9933L321.004 62.223ZM420.426 59.8805C416.479 59.6279 414.184 57.3848 413.576 53.186C413.414 52.0691 413.414 52.0401 413.397 44.7891L413.381 37.7713H415.128H416.874L416.888 44.5593C416.9 50.6772 416.908 51.3945 416.967 51.8249C417.204 53.5715 417.678 54.7461 418.484 55.5891C419.129 56.2639 419.884 56.659 420.929 56.8686C421.423 56.9675 422.825 56.9677 423.275 56.869C424.335 56.6362 425.184 56.1759 425.933 55.4282C426.787 54.576 427.419 53.3669 427.725 51.9997L427.828 51.5389L427.839 44.6934L427.851 37.8479H429.634H431.417V48.6092V59.3705H429.652H427.888V57.6631C427.888 56.503 427.875 55.96 427.848 55.969C427.826 55.9762 427.735 56.1147 427.647 56.2766C427.038 57.3837 426.025 58.3962 424.915 59.0061C423.584 59.7373 422.249 59.9972 420.426 59.8805ZM460.482 59.8631C459.089 59.7586 457.622 59.2805 456.423 58.5402C453.896 56.9799 452.401 54.408 451.963 50.8686C451.812 49.6439 451.794 47.9987 451.92 46.958C452.202 44.6326 453.118 42.3498 454.421 40.7201C454.756 40.3023 455.514 39.5456 455.932 39.212C457.062 38.3113 458.384 37.6814 459.788 37.3749C460.606 37.1963 462.046 37.1125 462.914 37.1929C465.097 37.3948 467.097 38.4206 468.457 40.0351C469.838 41.6755 470.598 43.9676 470.694 46.7901C470.71 47.2324 470.713 48.0079 470.703 48.5134L470.683 49.4325L463.039 49.4422L455.395 49.4518V49.7924C455.395 50.829 455.647 52.0096 456.084 53.0141C456.46 53.8804 457.108 54.8263 457.639 55.2841C458.726 56.2227 460.057 56.7844 461.514 56.9196C462.054 56.9698 463.431 56.917 464.046 56.8226C465.802 56.5532 467.472 55.8657 468.82 54.8567C468.979 54.7379 469.13 54.627 469.157 54.6102C469.197 54.5855 469.206 54.8957 469.205 56.1995L469.204 57.8194L468.843 58.0424C467.317 58.984 465.57 59.5887 463.72 59.815C463.168 59.8825 461.142 59.9126 460.482 59.8631ZM467.135 46.2005C467.135 44.4642 466.401 42.5353 465.364 41.542C464.624 40.8332 463.729 40.4 462.665 40.2355C462.162 40.1577 461.101 40.1877 460.57 40.2947C459.448 40.521 458.521 41.0133 457.711 41.8115C456.86 42.6517 456.221 43.6721 455.819 44.8347C455.675 45.2528 455.506 45.9391 455.454 46.3209L455.429 46.5028H461.282H467.135V46.2005ZM363.443 59.3226C363.452 59.2962 366.048 52.4891 369.212 44.1956L374.964 29.1165L376.812 29.1164L378.66 29.1163L378.814 29.5089C379.282 30.7084 390.329 59.3377 390.329 59.3526C390.329 59.3624 389.444 59.3703 388.363 59.3701L386.396 59.3697L384.804 55.1384L383.212 50.907L376.802 50.9069L370.391 50.9068L370.335 51.0504C370.305 51.1294 369.624 53.0334 368.824 55.2815L367.368 59.369L365.397 59.3697C363.838 59.3702 363.431 59.3605 363.443 59.3226ZM382.042 47.6778C382.042 47.6711 380.971 44.7716 379.661 41.2345C377.211 34.6171 377.074 34.2189 376.881 33.1566C376.79 32.6584 376.744 32.6445 376.69 33.0991C376.652 33.424 376.485 34.1511 376.356 34.5544C376.292 34.7545 375.189 37.7771 373.904 41.2713C372.62 44.7656 371.569 47.6393 371.569 47.6573C371.569 47.6753 373.925 47.69 376.805 47.69C379.686 47.69 382.042 47.6846 382.042 47.6778ZM391.518 58.8193V58.2682L397.905 49.5037L404.292 40.7392L398.509 40.7201L392.727 40.7009L392.717 39.2361L392.707 37.7713H401.07H409.434V38.266V38.7608L403.047 47.5731C399.533 52.4198 396.659 56.3935 396.659 56.4035C396.659 56.4135 399.499 56.4216 402.97 56.4216H409.281V57.896V59.3704H400.4H391.518V58.8193ZM438.387 59.3449C438.373 59.3309 438.361 54.471 438.361 48.5453V37.7713H440.107H441.852V39.9925C441.852 41.2141 441.867 42.2136 441.885 42.2136C441.904 42.2136 441.989 42.0137 442.074 41.7693C442.467 40.6493 443.147 39.6028 444.024 38.7711C444.814 38.0218 445.717 37.5737 446.782 37.4023C447.081 37.3541 447.335 37.3449 447.933 37.3604C448.685 37.38 449.078 37.4348 449.535 37.584L449.679 37.6309V39.4396V41.2483L449.266 41.0422C448.538 40.6782 447.819 40.5341 446.955 40.579C446.392 40.6082 446.023 40.6803 445.574 40.8487C444.649 41.1953 443.898 41.807 443.374 42.642C442.615 43.8508 442.074 45.4046 441.914 46.8327C441.885 47.0889 441.868 49.1762 441.862 53.2909L441.852 59.3704H440.132C439.186 59.3704 438.401 59.3589 438.387 59.3449ZM289.891 59.2692C289.891 59.2556 293.734 52.5949 298.432 44.4676L306.974 29.6907L316.929 21.3517C322.404 16.7652 326.898 13.007 326.916 13.0002C326.934 12.9933 326.862 13.1743 326.756 13.4023C326.65 13.6303 321.786 24.0449 315.947 36.5458L305.33 59.2747L297.611 59.2844C293.365 59.2897 289.891 59.2829 289.891 59.2692Z" fill="white"/>
<path d="M806.059 26.4168C806.316 26.4168 806.573 26.4168 806.72 26.1596C806.757 26.0494 806.793 25.9392 806.793 25.8289C806.793 25.6085 806.683 25.4248 806.499 25.3146C806.316 25.2411 806.132 25.2411 805.728 25.2411H805.544V26.38H806.059V26.4168ZM805.728 24.6165C806.279 24.6165 806.536 24.6165 806.757 24.7268C807.491 24.9472 807.565 25.6085 807.565 25.8289C807.565 25.8657 807.565 26.0126 807.528 26.1596C807.491 26.3065 807.418 26.6005 807.014 26.8576C806.94 26.8944 806.94 26.8944 806.83 26.9311L807.749 28.6211H806.867L806.059 27.0781H805.544V28.6211H804.736V24.6165H805.728ZM806.059 30.2744C808.042 30.2744 809.622 28.6579 809.622 26.7107C809.622 24.7268 808.042 23.147 806.059 23.147C804.111 23.147 802.531 24.7268 802.531 26.7107C802.531 28.6579 804.111 30.2744 806.059 30.2744ZM803.266 26.7107C803.266 25.1676 804.515 23.8817 806.059 23.8817C807.638 23.8817 808.888 25.1676 808.888 26.7107C808.888 28.217 807.602 29.5029 806.059 29.5029C804.552 29.5029 803.266 28.217 803.266 26.7107ZM778.503 49.3789C773.8 49.3789 769.869 46.2193 768.657 41.9208H794.669L798.27 36.3364H768.62C769.796 32.0379 773.8 28.8416 778.466 28.8416H796.396L799.96 23.2572H778.062C769.281 23.2572 762.19 30.3479 762.19 39.0918C762.19 47.8358 769.281 54.9265 778.062 54.9265H796.873L800.437 49.3421H778.466L778.503 49.3789ZM703.957 54.9633C695.213 54.9633 688.122 47.8726 688.122 39.1286C688.122 30.3846 695.213 23.2939 703.957 23.2939H725.854L722.254 28.8783H704.324C698.666 28.8783 694.074 33.4707 694.074 39.1286C694.074 44.7865 698.666 49.3789 704.324 49.3789H726.295L722.694 54.9633H703.883H703.957ZM588.224 49.3789C593.882 49.3789 598.512 44.7865 598.512 39.1286C598.512 33.4707 593.919 28.8783 588.224 28.8783H570.626C564.968 28.8783 560.375 33.4707 560.375 39.1286C560.375 44.7865 564.968 49.3789 570.626 49.3789H588.224ZM570.221 54.9633C561.441 54.9633 554.35 47.8726 554.35 39.1286C554.35 30.3846 561.441 23.2939 570.221 23.2939H588.628C597.373 23.2939 604.464 30.3846 604.464 39.1286C604.464 47.8726 597.373 54.9633 588.628 54.9633H570.221ZM634.37 44.713C640.322 44.713 645.099 39.9001 645.099 33.9851C645.099 28.07 640.322 23.2572 634.37 23.2572H607.697V54.9633H613.796V28.8416H633.966C636.758 28.8416 639.073 31.1561 639.073 33.9851C639.073 36.814 636.758 39.0918 633.966 39.0918H616.772L634.921 54.9633H643.776L631.541 44.713H634.297H634.37ZM735.186 49.3789V23.2939H729.124V51.9506C729.124 52.7589 729.418 53.4937 730.006 54.0815C730.594 54.6326 731.402 55 732.247 55H760.059L763.66 49.4156H735.223L735.186 49.3789ZM660.603 43.7945H676.879L668.282 29.9437L652.483 55H645.319L664.498 24.9472C665.343 23.7348 666.739 23 668.282 23C669.751 23 671.148 23.698 671.993 24.8737L691.245 55H684.043L680.663 49.4156H664.204L660.603 43.8312V43.7945Z" fill="#FEFEFE"/>
<path d="M979.078 57.3316V53.5326H987.353V24.702H979.078V20.9031H999.998V24.702H991.724V53.5326H999.998V57.3316H979.078Z" fill="white"/>
<path d="M944.439 57.3316L955.836 20.9031H960.884L972.229 57.3316H967.441L964.787 48.2765H951.881L949.227 57.3316H944.439ZM958.23 27.0439L952.974 44.6336H963.695L958.438 27.0439H958.23Z" fill="white"/>
<path d="M925.801 61C925.801 49.4386 931.798 43.4625 942.698 43.4625C931.714 43.4625 925.801 37.1269 925.801 25.925C925.801 37.0436 919.314 43.4625 908.904 43.4625C919.309 43.4573 925.801 49.4334 925.801 61Z" fill="white"/>
<path d="M900.813 48.1985C900.813 43.03 903.491 40.3624 908.363 40.3624C903.455 40.3624 900.813 37.5332 900.813 32.5262C900.813 37.4915 897.916 40.3624 893.264 40.3624C897.916 40.3624 900.813 43.0352 900.813 48.1985Z" fill="white"/>
<path d="M910.75 36.7466C910.75 30.2391 914.126 26.8733 920.264 26.8733C914.079 26.8733 910.75 23.3095 910.75 17C910.75 23.2574 907.098 26.8733 901.236 26.8733C907.098 26.8733 910.75 30.2391 910.75 36.7466Z" fill="white"/>
</svg>
