<svg width="65" height="65" viewBox="0 0 65 65" fill="none" xmlns="http://www.w3.org/2000/svg">
<rect width="65" height="65" rx="20" fill="#D9D9D9" fill-opacity="0.2"/>
<path d="M47.5505 30.0103H46.7815C46.9145 29.6043 47.0455 29.1844 47.1665 28.7504C48.7595 23.0634 47.5855 18.8803 42.2305 16.7393C39.9745 11.4583 33.9525 10.5163 30.0215 11.3063C27.4405 11.8213 20.7345 10.8394 18.6025 10.5064C18.5256 10.4953 18.4472 10.5035 18.3743 10.5303C18.3014 10.5572 18.2363 10.6017 18.1849 10.6599C18.1335 10.7182 18.0975 10.7883 18.0799 10.864C18.0624 10.9396 18.064 11.0184 18.0845 11.0933C18.4361 12.3071 18.8848 13.4906 19.4265 14.6323C15.5265 16.6403 13.3985 22.0544 16.4805 30.6204V30.6264C16.5605 30.8504 16.7955 31.4754 17.0615 32.1264C17.1429 32.3256 17.1717 32.5424 17.1453 32.7561C17.1189 32.9697 17.038 33.1729 16.9105 33.3463C16.8845 33.3853 16.8575 33.4213 16.8315 33.4573C16.7028 33.625 16.5358 33.7595 16.3445 33.8494C15.7255 34.1494 15.5375 34.6494 15.7375 36.3424C16.2745 40.7634 16.1565 43.1423 18.0905 42.8643C18.2776 42.8386 18.4681 42.8707 18.6365 42.9564C18.773 43.0242 18.8914 43.1236 18.9817 43.2464C19.0719 43.3692 19.1315 43.5118 19.1555 43.6624C19.9185 48.4784 24.4555 50.2234 29.0165 53.4624C29.7777 54.1166 30.7442 54.4831 31.7478 54.4979C32.7514 54.5127 33.7284 54.1749 34.5085 53.5433C37.9085 50.2823 39.5925 48.7174 40.6305 47.5714H36.0305C35.1305 48.4334 33.9665 49.5404 32.4175 51.0244C31.7045 51.5054 31.1785 50.9754 30.8835 50.7664C26.1215 47.3794 22.6645 46.1824 22.3225 42.8414C22.2382 42.1715 21.9666 41.5389 21.5388 41.0166C21.1111 40.4942 20.5446 40.1031 19.9045 39.8884C19.7454 39.8204 19.607 39.7119 19.5031 39.5736C19.3992 39.4353 19.3335 39.2721 19.3125 39.1004C19.2235 38.3444 19.1385 37.4704 19.0235 36.4644C18.9915 36.1952 19.063 35.9238 19.2235 35.7053V35.6994C19.8895 34.7994 21.1645 33.0604 20.2765 31.3214C20.9411 30.8241 21.4844 30.1827 21.8655 29.4454C22.7187 27.9861 23.062 26.2843 22.8415 24.6083C22.8264 24.5214 22.8364 24.4319 22.8704 24.3504C22.9045 24.269 22.9611 24.199 23.0336 24.1486C23.1061 24.0983 23.1915 24.0697 23.2797 24.0663C23.3679 24.0629 23.4553 24.0848 23.5315 24.1293C25.6605 25.3623 27.5245 24.1293 35.4015 24.5513C38.3885 24.7093 41.5295 25.7234 43.5015 28.0244C43.6552 28.2097 43.7397 28.4426 43.7405 28.6834C43.7401 28.791 43.7232 28.8979 43.6905 29.0004C42.7175 31.9414 41.7465 33.4104 42.6525 35.1904C42.8731 35.6228 42.9765 36.1055 42.9525 36.5903C42.9435 36.7853 42.9405 36.9744 42.9465 37.1674C42.9619 37.5568 42.8966 37.9452 42.7546 38.3081C42.6126 38.6711 42.397 39.0008 42.1215 39.2764C41.6694 39.7084 41.2914 40.2118 41.0025 40.7664C40.7465 41.2364 40.5315 41.6403 40.3455 41.9993H44.0645V41.9943H44.7755C44.6333 42.5032 44.3293 42.9519 43.9095 43.2727C43.4896 43.5934 42.9768 43.7688 42.4485 43.7724H34.1855C34.2017 43.5415 34.1271 43.3135 33.9777 43.1368C33.8283 42.9601 33.6158 42.8487 33.3855 42.8264H29.8855C29.6534 42.8495 29.4397 42.9626 29.2901 43.1415C29.1405 43.3204 29.0671 43.5509 29.0855 43.7833V45.7443C29.0668 45.977 29.1401 46.2077 29.2897 46.3869C29.4393 46.566 29.6533 46.6793 29.8855 46.7023H33.3855C33.6158 46.68 33.8283 46.5686 33.9777 46.3919C34.1271 46.2152 34.2017 45.9872 34.1855 45.7564H42.4485C43.4998 45.749 44.5137 45.3655 45.3067 44.6752C46.0997 43.985 46.6193 43.0336 46.7715 41.9934H47.5375C48.1935 41.9886 48.8207 41.7235 49.2813 41.2564C49.7418 40.7892 49.998 40.1583 49.9935 39.5023V32.5023C49.9983 31.8484 49.744 31.2192 49.2862 30.7522C48.8284 30.2852 48.2044 30.0185 47.5505 30.0103Z" fill="url(#paint0_linear_5497_3843)"/>
<defs>
<linearGradient id="paint0_linear_5497_3843" x1="15.0078" y1="10.5016" x2="49.9942" y2="10.5021" gradientUnits="userSpaceOnUse">
<stop offset="0.0001" stop-color="#E59CFF"/>
<stop offset="0.5001" stop-color="#BA9CFF"/>
<stop offset="1" stop-color="#9CB2FF"/>
</linearGradient>
</defs>
</svg>
