<svg width="16" height="16" viewBox="0 0 16 16" fill="none" xmlns="http://www.w3.org/2000/svg">
<path d="M5.78125 9.55331C5.78125 10.4133 6.44125 11.1066 7.26125 11.1066H8.93458C9.64792 11.1066 10.2279 10.5 10.2279 9.75331C10.2279 8.93998 9.87458 8.65331 9.34792 8.46664L6.66125 7.53331C6.13458 7.34664 5.78125 7.05998 5.78125 6.24664C5.78125 5.49998 6.36125 4.89331 7.07458 4.89331H8.74792C9.56792 4.89331 10.2279 5.58664 10.2279 6.44664" stroke="#D7D7D7" stroke-width="1.5" stroke-linecap="round" stroke-linejoin="round"/>
<path d="M8 4V12" stroke="#D7D7D7" stroke-width="1.5" stroke-linecap="round" stroke-linejoin="round"/>
<path d="M9.9987 14.6668H5.9987C2.66536 14.6668 1.33203 13.3335 1.33203 10.0002V6.00016C1.33203 2.66683 2.66536 1.3335 5.9987 1.3335H9.9987C13.332 1.3335 14.6654 2.66683 14.6654 6.00016V10.0002C14.6654 13.3335 13.332 14.6668 9.9987 14.6668Z" stroke="#D7D7D7" stroke-width="1.5" stroke-linecap="round" stroke-linejoin="round"/>
</svg>
