<svg width="31" height="31" viewBox="0 0 31 31" fill="none" xmlns="http://www.w3.org/2000/svg">
<path d="M6.45898 12.9168H9.04232C11.6257 12.9168 12.9173 11.6252 12.9173 9.04183V6.4585C12.9173 3.87516 11.6257 2.5835 9.04232 2.5835H6.45898C3.87565 2.5835 2.58398 3.87516 2.58398 6.4585V9.04183C2.58398 11.6252 3.87565 12.9168 6.45898 12.9168Z" stroke="white" stroke-width="1.9375" stroke-miterlimit="10" stroke-linecap="round" stroke-linejoin="round"/>
<path d="M21.959 12.9168H24.5423C27.1257 12.9168 28.4173 11.6252 28.4173 9.04183V6.4585C28.4173 3.87516 27.1257 2.5835 24.5423 2.5835H21.959C19.3757 2.5835 18.084 3.87516 18.084 6.4585V9.04183C18.084 11.6252 19.3757 12.9168 21.959 12.9168Z" stroke="white" stroke-width="1.9375" stroke-miterlimit="10" stroke-linecap="round" stroke-linejoin="round"/>
<path d="M21.959 28.4168H24.5423C27.1257 28.4168 28.4173 27.1252 28.4173 24.5418V21.9585C28.4173 19.3752 27.1257 18.0835 24.5423 18.0835H21.959C19.3757 18.0835 18.084 19.3752 18.084 21.9585V24.5418C18.084 27.1252 19.3757 28.4168 21.959 28.4168Z" stroke="white" stroke-width="1.9375" stroke-miterlimit="10" stroke-linecap="round" stroke-linejoin="round"/>
<path d="M6.45898 28.4168H9.04232C11.6257 28.4168 12.9173 27.1252 12.9173 24.5418V21.9585C12.9173 19.3752 11.6257 18.0835 9.04232 18.0835H6.45898C3.87565 18.0835 2.58398 19.3752 2.58398 21.9585V24.5418C2.58398 27.1252 3.87565 28.4168 6.45898 28.4168Z" stroke="white" stroke-width="1.9375" stroke-miterlimit="10" stroke-linecap="round" stroke-linejoin="round"/>
</svg>
